<svg width="36" height="36" viewBox="0 0 36 36" fill="none" xmlns="http://www.w3.org/2000/svg">
<path fill-rule="evenodd" clip-rule="evenodd" d="M14.25 7.5C14.25 8.29565 13.9339 9.05871 13.3713 9.62132C12.8087 10.1839 12.0456 10.5 11.25 10.5C10.4544 10.5 9.69129 10.1839 9.12868 9.62132C8.56607 9.05871 8.25 8.29565 8.25 7.5C8.25 6.70435 8.56607 5.94129 9.12868 5.37868C9.69129 4.81607 10.4544 4.5 11.25 4.5C12.0456 4.5 12.8087 4.81607 13.3713 5.37868C13.9339 5.94129 14.25 6.70435 14.25 7.5ZM11.25 21C12.0456 21 12.8087 20.6839 13.3713 20.1213C13.9339 19.5587 14.25 18.7956 14.25 18C14.25 17.2044 13.9339 16.4413 13.3713 15.8787C12.8087 15.3161 12.0456 15 11.25 15C10.4544 15 9.69129 15.3161 9.12868 15.8787C8.56607 16.4413 8.25 17.2044 8.25 18C8.25 18.7956 8.56607 19.5587 9.12868 20.1213C9.69129 20.6839 10.4544 21 11.25 21ZM11.25 31.5C12.0456 31.5 12.8087 31.1839 13.3713 30.6213C13.9339 30.0587 14.25 29.2956 14.25 28.5C14.25 27.7044 13.9339 26.9413 13.3713 26.3787C12.8087 25.8161 12.0456 25.5 11.25 25.5C10.4544 25.5 9.69129 25.8161 9.12868 26.3787C8.56607 26.9413 8.25 27.7044 8.25 28.5C8.25 29.2956 8.56607 30.0587 9.12868 30.6213C9.69129 31.1839 10.4544 31.5 11.25 31.5ZM27.75 7.5C27.75 8.29565 27.4339 9.05871 26.8713 9.62132C26.3087 10.1839 25.5456 10.5 24.75 10.5C23.9544 10.5 23.1913 10.1839 22.6287 9.62132C22.0661 9.05871 21.75 8.29565 21.75 7.5C21.75 6.70435 22.0661 5.94129 22.6287 5.37868C23.1913 4.81607 23.9544 4.5 24.75 4.5C25.5456 4.5 26.3087 4.81607 26.8713 5.37868C27.4339 5.94129 27.75 6.70435 27.75 7.5ZM24.75 21C25.5456 21 26.3087 20.6839 26.8713 20.1213C27.4339 19.5587 27.75 18.7956 27.75 18C27.75 17.2044 27.4339 16.4413 26.8713 15.8787C26.3087 15.3161 25.5456 15 24.75 15C23.9544 15 23.1913 15.3161 22.6287 15.8787C22.0661 16.4413 21.75 17.2044 21.75 18C21.75 18.7956 22.0661 19.5587 22.6287 20.1213C23.1913 20.6839 23.9544 21 24.75 21ZM24.75 31.5C25.5456 31.5 26.3087 31.1839 26.8713 30.6213C27.4339 30.0587 27.75 29.2956 27.75 28.5C27.75 27.7044 27.4339 26.9413 26.8713 26.3787C26.3087 25.8161 25.5456 25.5 24.75 25.5C23.9544 25.5 23.1913 25.8161 22.6287 26.3787C22.0661 26.9413 21.75 27.7044 21.75 28.5C21.75 29.2956 22.0661 30.0587 22.6287 30.6213C23.1913 31.1839 23.9544 31.5 24.75 31.5Z" fill="#ACACAC"/>
</svg>
