<svg width="24" height="24" viewBox="0 0 24 24" fill="none" xmlns="http://www.w3.org/2000/svg">
<g clip-path="url(#clip0_19_207)">
<path d="M18.741 0.379509C16.62 0.379509 15.258 9.27737e-06 13.0725 9.27737e-06C6.0105 9.27737e-06 2.718 4.02151 2.718 8.10601C2.718 10.512 3.858 11.304 6.1065 11.304C5.9475 10.956 5.6625 10.575 5.6625 8.86501C5.6625 4.08301 7.467 2.68951 9.7785 2.59501C9.7785 2.59501 7.8825 21.189 2.3775 23.4195V23.997H9.798L12.33 11.997H16.9665L18 8.99701H12.963L14.181 3.22651C15.5745 3.51151 16.9365 3.79651 18.108 3.79651C19.5645 3.79651 20.895 3.35251 21.6225 -0.00299072C20.736 0.282009 19.7865 0.376509 18.741 0.376509V0.379509Z" fill="#ACACAC"/>
</g>
<defs>
<clipPath id="clip0_19_207">
<rect width="24" height="24" fill="white"/>
</clipPath>
</defs>
</svg>
