<svg width="100" height="100" viewBox="0 0 100 100" fill="none" xmlns="http://www.w3.org/2000/svg">
<path d="M0 0H100V100H0V0Z" fill="#A16F39"/>
<path d="M23.75 44.75C22.7554 44.75 21.8016 45.1451 21.0983 45.8484C20.3951 46.5516 20 47.5054 20 48.5V82.25C20 83.2446 20.3951 84.1984 21.0983 84.9016C21.8016 85.6049 22.7554 86 23.75 86H76.25C77.2446 86 78.1984 85.6049 78.9017 84.9016C79.6049 84.1984 80 83.2446 80 82.25V48.5C80 47.5054 79.6049 46.5516 78.9017 45.8484C78.1984 45.1451 77.2446 44.75 76.25 44.75H23.75ZM23.75 37.25H76.25C79.2337 37.25 82.0952 38.4353 84.205 40.545C86.3147 42.6548 87.5 45.5163 87.5 48.5V82.25C87.5 85.2337 86.3147 88.0952 84.205 90.205C82.0952 92.3147 79.2337 93.5 76.25 93.5H23.75C20.7663 93.5 17.9048 92.3147 15.795 90.205C13.6853 88.0952 12.5 85.2337 12.5 82.25V48.5C12.5 45.5163 13.6853 42.6548 15.795 40.545C17.9048 38.4353 20.7663 37.25 23.75 37.25ZM38.75 97.25H61.25C62.2446 97.25 63.0769 97.5893 63.9016 98.3483C64.4716 98.8729 65 99.0054 65 100H35C35 99.0054 36.0984 98.3483 36.0984 98.3483C36.0984 98.3483 37.7554 97.25 38.75 97.25Z" fill="black" fill-opacity="0.2"/>
<path d="M29.332 82C27.2357 82 26.1875 80.877 26.1875 78.6309V20.9512C26.1875 18.7051 27.2357 17.582 29.332 17.582H36.1602C38.2565 17.582 39.3047 18.7051 39.3047 20.9512V38.8301C39.3047 40.627 39.2298 42.4238 39.0801 44.2207H39.3945L61.2266 20.2324C62.8438 18.4655 64.2214 17.582 65.3594 17.582H74.3887C77.8926 17.582 78.4616 18.8698 76.0957 21.4453L55.6562 43.8164L77.5332 78.1367C79.1803 80.7122 78.6113 82 75.8262 82H67.4258C65.8685 82 64.5208 81.1165 63.3828 79.3496L46.8516 53.4297L39.3047 61.9199V78.6309C39.3047 80.877 38.2565 82 36.1602 82H29.332Z" fill="#FFFCFC"/>
</svg>
