<svg width="100" height="100" viewBox="0 0 100 100" fill="none" xmlns="http://www.w3.org/2000/svg">
<path d="M56.2514 44.75H76.25C77.2446 44.75 78.1984 45.1451 78.9017 45.8484C79.6049 46.5516 80 47.5054 80 48.5V82.25C80 83.2446 79.6049 84.1984 78.9017 84.9016C78.1984 85.6049 77.2446 86 76.25 86H23.75C22.7554 86 21.8016 85.6049 21.0983 84.9016C20.3951 84.1984 20 83.2446 20 82.25V48.5C20 47.5054 20.3951 46.5516 21.0983 45.8484C21.8016 45.1451 22.7554 44.75 23.75 44.75H26.1875V78.6309C26.1875 80.877 27.2357 82 29.332 82H36.1602C38.2565 82 39.3047 80.877 39.3047 78.6309V61.9199L46.8516 53.4297L63.3828 79.3496C64.5208 81.1165 65.8685 82 67.4258 82H75.8262C78.6113 82 79.1803 80.7122 77.5332 78.1367L56.2514 44.75Z" fill="#5E60CE"/>
<path d="M45.7387 37.25H39.3047V38.8301C39.3047 40.627 39.2298 42.4238 39.0801 44.2207H39.3945L45.7387 37.25Z" fill="#5E60CE"/>
<path d="M45.7387 37.25H39.3047V38.8301C39.3047 40.627 39.2298 42.4238 39.0801 44.2207H39.3945L45.7387 37.25Z" fill="black" fill-opacity="0.2"/>
<path d="M76.25 37.25H61.6557L55.6562 43.8164L56.2514 44.75H76.25C77.2446 44.75 78.1984 45.1451 78.9017 45.8484C79.6049 46.5516 80 47.5054 80 48.5V82.25C80 83.2446 79.6049 84.1984 78.9017 84.9016C78.1984 85.6049 77.2446 86 76.25 86H23.75C22.7554 86 21.8016 85.6049 21.0983 84.9016C20.3951 84.1984 20 83.2446 20 82.25V48.5C20 47.5054 20.3951 46.5516 21.0983 45.8484C21.8016 45.1451 22.7554 44.75 23.75 44.75H26.1875V37.25H23.75C20.7663 37.25 17.9048 38.4353 15.795 40.545C13.6853 42.6548 12.5 45.5163 12.5 48.5V82.25C12.5 85.2337 13.6853 88.0952 15.795 90.205C17.9048 92.3147 20.7663 93.5 23.75 93.5H76.25C79.2337 93.5 82.0952 92.3147 84.205 90.205C86.3147 88.0952 87.5 85.2337 87.5 82.25V48.5C87.5 45.5163 86.3147 42.6548 84.205 40.545C82.0952 38.4353 79.2337 37.25 76.25 37.25Z" fill="#5E60CE"/>
<path d="M76.25 37.25H61.6557L55.6562 43.8164L56.2514 44.75H76.25C77.2446 44.75 78.1984 45.1451 78.9017 45.8484C79.6049 46.5516 80 47.5054 80 48.5V82.25C80 83.2446 79.6049 84.1984 78.9017 84.9016C78.1984 85.6049 77.2446 86 76.25 86H23.75C22.7554 86 21.8016 85.6049 21.0983 84.9016C20.3951 84.1984 20 83.2446 20 82.25V48.5C20 47.5054 20.3951 46.5516 21.0983 45.8484C21.8016 45.1451 22.7554 44.75 23.75 44.75H26.1875V37.25H23.75C20.7663 37.25 17.9048 38.4353 15.795 40.545C13.6853 42.6548 12.5 45.5163 12.5 48.5V82.25C12.5 85.2337 13.6853 88.0952 15.795 90.205C17.9048 92.3147 20.7663 93.5 23.75 93.5H76.25C79.2337 93.5 82.0952 92.3147 84.205 90.205C86.3147 88.0952 87.5 85.2337 87.5 82.25V48.5C87.5 45.5163 86.3147 42.6548 84.205 40.545C82.0952 38.4353 79.2337 37.25 76.25 37.25Z" fill="black" fill-opacity="0.2"/>
<path d="M35 100H65C65 99.2242 64.6775 98.9721 64.2655 98.6501C64.1497 98.5595 64.0266 98.4634 63.9016 98.3483C63.0769 97.5893 62.2446 97.25 61.25 97.25H38.75C37.7554 97.25 36.0984 98.3483 36.0984 98.3483C36.0984 98.3483 35 99.0054 35 100Z" fill="#5E60CE"/>
<path d="M35 100H65C65 99.2242 64.6775 98.9721 64.2655 98.6501C64.1497 98.5595 64.0266 98.4634 63.9016 98.3483C63.0769 97.5893 62.2446 97.25 61.25 97.25H38.75C37.7554 97.25 36.0984 98.3483 36.0984 98.3483C36.0984 98.3483 35 99.0054 35 100Z" fill="black" fill-opacity="0.2"/>
<path d="M56.2514 44.75H26.1875V78.6309C26.1875 80.877 27.2357 82 29.332 82H36.1602C38.2565 82 39.3047 80.877 39.3047 78.6309V61.9199L46.8516 53.4297L63.3828 79.3496C64.5208 81.1165 65.8685 82 67.4258 82H75.8262C78.6113 82 79.1803 80.7122 77.5332 78.1367L56.2514 44.75Z" fill="white"/>
<path d="M26.1875 44.75H56.2514L55.6562 43.8164L61.6557 37.25H45.7387L39.3945 44.2207H39.0801C39.2298 42.4238 39.3047 40.627 39.3047 38.8301V37.25H26.1875V44.75Z" fill="white"/>
<path d="M61.6557 37.25L76.0957 21.4453C78.4616 18.8698 77.8926 17.582 74.3887 17.582H65.3594C64.2214 17.582 62.8438 18.4655 61.2266 20.2324L45.7387 37.25H61.6557Z" fill="white"/>
<path d="M39.3047 37.25V20.9512C39.3047 18.7051 38.2565 17.582 36.1602 17.582H29.332C27.2357 17.582 26.1875 18.7051 26.1875 20.9512V37.25H39.3047Z" fill="white"/>
<path fill-rule="evenodd" clip-rule="evenodd" d="M64.2655 98.6501C64.6775 98.9721 65 99.2242 65 100H100V0H0V100H35C35 99.0054 36.0984 98.3483 36.0984 98.3483C36.0984 98.3483 37.7554 97.25 38.75 97.25H61.25C62.2446 97.25 63.0769 97.5893 63.9016 98.3483C64.0266 98.4634 64.1497 98.5595 64.2655 98.6501ZM61.6557 37.25H76.25C79.2337 37.25 82.0952 38.4353 84.205 40.545C86.3147 42.6548 87.5 45.5163 87.5 48.5V82.25C87.5 85.2337 86.3147 88.0952 84.205 90.205C82.0952 92.3147 79.2337 93.5 76.25 93.5H23.75C20.7663 93.5 17.9048 92.3147 15.795 90.205C13.6853 88.0952 12.5 85.2337 12.5 82.25V48.5C12.5 45.5163 13.6853 42.6548 15.795 40.545C17.9048 38.4353 20.7663 37.25 23.75 37.25H26.1875V20.9512C26.1875 18.7051 27.2357 17.582 29.332 17.582H36.1602C38.2565 17.582 39.3047 18.7051 39.3047 20.9512V37.25H45.7387L61.2266 20.2324C62.8438 18.4655 64.2214 17.582 65.3594 17.582H74.3887C77.8926 17.582 78.4616 18.8698 76.0957 21.4453L61.6557 37.25Z" fill="#5E60CE"/>
</svg>
