<svg width="190" height="190" viewBox="0 0 190 190" fill="none" xmlns="http://www.w3.org/2000/svg">
<path fill-rule="evenodd" clip-rule="evenodd" d="M20 1.03099C20.561 1.29399 20.219 1.33599 18.857 1.17199C17.364 0.991987 16.986 1.05399 17.223 1.43699C17.441 1.78999 17.33 1.85899 16.84 1.67099C16.203 1.42599 13.8 2.34599 13.8 2.83399C13.8 2.95099 13.978 2.93699 14.195 2.80299C14.426 2.66099 14.487 2.82899 14.342 3.20599C14.167 3.66399 13.969 3.72899 13.668 3.42799C13.052 2.81199 10.859 4.94799 11.418 5.62099C11.7 5.96199 11.633 6.17899 11.189 6.34899C10.779 6.50599 10.657 6.43099 10.841 6.13399C11.019 5.84599 10.946 5.78599 10.646 5.97199C10.372 6.14099 10.278 6.61599 10.427 7.08399C10.604 7.64299 10.541 7.81099 10.227 7.61699C9.90399 7.41699 9.84099 7.66799 10.016 8.46599C10.213 9.36299 10.17 9.47399 9.81399 8.99999C9.44599 8.50899 9.38599 8.58099 9.48199 9.39999C9.57399 10.183 9.43999 10.373 8.85999 10.273C8.36099 10.188 8.21799 10.306 8.42199 10.635C8.61499 10.949 8.55699 11.021 8.25799 10.836C7.59799 10.428 6.13199 10.967 6.45999 11.497C6.63199 11.775 6.49699 11.846 6.09099 11.69C4.81699 11.201 1.43699 15.077 1.95699 16.431C2.10799 16.825 2.02799 16.941 1.73199 16.758C1.42099 16.566 1.34599 16.751 1.49999 17.338C1.63199 17.843 1.56499 18.102 1.33799 17.962C1.09599 17.812 1.03299 18.674 1.16799 20.261C1.31399 21.974 1.26899 22.474 1.03199 21.8C0.821988 21.203 0.679991 30.23 0.679991 44.2C0.679991 57.655 0.824994 67.175 1.02099 66.6C1.24199 65.956 1.28899 66.596 1.15499 68.4C1.00199 70.444 1.06099 71.038 1.37299 70.6C1.69199 70.15 1.73299 70.34 1.53699 71.362C1.33199 72.428 1.38899 72.654 1.79899 72.4C2.14799 72.185 2.22699 72.232 2.03599 72.542C1.68499 73.11 2.13399 74.688 2.56999 74.418C2.74199 74.312 3.09099 74.681 3.34499 75.238C3.67099 75.954 3.67599 76.171 3.36299 75.977C3.03899 75.777 3.03899 75.926 3.36199 76.529C3.60499 76.984 4.02799 77.49 4.30199 77.655C4.59499 77.83 4.55199 77.633 4.19999 77.177C3.64099 76.453 3.64899 76.439 4.31799 76.964C4.71299 77.274 4.95299 77.745 4.85199 78.01C4.74999 78.275 5.77099 79.551 7.11999 80.846C8.46899 82.141 9.21899 82.75 8.78599 82.2L7.99999 81.2L8.83799 81.906C9.58299 82.533 9.64099 82.848 9.35399 84.706C8.85599 87.935 8.72299 106.569 9.19999 106.294C9.41999 106.166 9.25699 106.453 8.83799 106.931C7.92799 107.968 7.47499 108.096 8.23899 107.1C8.53399 106.715 8.28599 106.836 7.68799 107.37C6.41599 108.503 6.43299 108.467 7.18199 108.467C7.50299 108.467 7.65499 108.289 7.52099 108.072C7.37799 107.841 7.48299 107.804 7.77299 107.983C8.04599 108.152 8.11899 108.405 7.93499 108.546C7.75099 108.687 6.87999 109.432 6.00099 110.201L4.40199 111.6L5.60099 110.2L6.79999 108.8L5.50699 109.968C4.58199 110.804 4.32899 111.274 4.61799 111.621C4.89999 111.962 4.83299 112.179 4.38899 112.349C3.97899 112.506 3.85699 112.431 4.04099 112.134C4.21899 111.845 4.14599 111.786 3.84199 111.974C3.49599 112.188 3.48099 112.416 3.79099 112.789C4.10799 113.171 4.05499 113.37 3.58899 113.549C3.17899 113.706 3.05699 113.631 3.24099 113.334C3.41899 113.046 3.34599 112.986 3.04599 113.172C2.77199 113.341 2.67799 113.816 2.82699 114.284C2.98999 114.799 2.93299 115.006 2.67199 114.844C2.16099 114.529 1.63999 116.017 2.03599 116.658C2.20499 116.931 2.14999 117.016 1.90399 116.865C1.24799 116.459 0.940987 118.422 1.17199 121.547C1.31099 123.436 1.26399 124.062 1.03099 123.4C0.821988 122.804 0.67499 131.844 0.66799 145.8C0.66099 160.656 0.792988 168.908 1.03099 168.4C1.29799 167.832 1.34199 168.14 1.18399 169.466C0.977988 171.193 1.74599 174.2 2.39399 174.2C2.52299 174.2 2.44199 173.852 2.21399 173.426C1.98599 173.001 1.80699 172.506 1.81599 172.326C1.82499 172.147 2.10299 172.499 2.43399 173.109C2.76499 173.72 2.93499 174.382 2.81099 174.582C2.68799 174.781 2.79799 175.075 3.05499 175.234C3.34599 175.414 3.41699 175.35 3.24099 175.066C3.05599 174.766 3.18099 174.695 3.60599 174.858C4.05999 175.032 4.12799 175.232 3.83199 175.528C3.29299 176.067 4.44599 177.434 5.19699 177.146C5.48399 177.036 5.85499 177.166 6.02099 177.435C6.22699 177.767 6.14399 177.83 5.76199 177.632C5.45299 177.472 5.55099 177.625 5.97899 177.972C6.42399 178.333 7.08899 178.499 7.52899 178.359C8.06299 178.19 8.20999 178.26 8.00599 178.59C7.80399 178.916 8.00799 179.024 8.65599 178.933C9.51099 178.813 9.58899 178.932 9.48299 180.2C9.38999 181.311 9.45799 181.476 9.81499 181C10.17 180.526 10.213 180.638 10.016 181.534C9.84099 182.332 9.90399 182.583 10.227 182.383C10.543 182.188 10.603 182.36 10.421 182.935C10.134 183.839 13.159 187.596 13.837 187.177C14.026 187.06 14.68 187.235 15.291 187.566C15.901 187.897 16.253 188.175 16.074 188.184C15.894 188.193 15.399 188.014 14.974 187.786C14.548 187.558 14.2 187.477 14.2 187.606C14.2 188.174 17.168 189.029 18.341 188.798C19.283 188.614 19.449 188.657 19 188.97C18.58 189.262 25.833 189.388 43.2 189.388C59.997 189.388 67.806 189.258 67.4 188.984C66.982 188.704 67.455 188.663 68.96 188.85C70.436 189.034 71.038 188.985 70.86 188.697C70.694 188.428 70.913 188.357 71.462 188.5C72.091 188.665 72.24 188.589 72.012 188.22C71.78 187.843 71.929 187.787 72.6 188C73.159 188.178 73.407 188.136 73.255 187.889C73.12 187.671 73.548 187.27 74.205 186.998C74.862 186.726 75.4 186.323 75.4 186.102C75.4 185.879 75.664 185.922 76 186.2C76.33 186.474 76.621 186.541 76.646 186.349C76.672 186.157 76.734 185.82 76.785 185.6C76.836 185.38 76.906 185.043 76.939 184.851C76.973 184.659 77.225 184.689 77.501 184.918C77.872 185.226 78.828 184.556 81.201 182.322L84.4 179.311L81 182.2L77.6 185.089L80.724 182.144L83.849 179.2L90.083 179.564C93.822 179.782 97.88 179.782 100.221 179.564C102.596 179.342 104.036 179.344 103.897 179.568C103.767 179.778 103.992 179.812 104.422 179.647C104.837 179.488 105.048 179.486 104.891 179.642C104.565 179.968 105.311 181 105.873 181C106.079 181 106.122 180.775 105.969 180.5C105.815 180.225 106.975 181.255 108.545 182.789C110.115 184.323 111.4 185.668 111.4 185.778C111.4 185.887 110.185 184.812 108.7 183.388L106 180.8L108.507 183.418C110.684 185.691 113.968 188.243 113.277 187.124C113.144 186.909 113.305 186.733 113.635 186.733C113.965 186.733 114.146 186.964 114.038 187.246C113.808 187.845 115.177 188.385 115.858 187.964C116.14 187.79 116.216 187.85 116.051 188.118C115.687 188.707 118.143 189.155 119.869 188.814C120.855 188.62 121.044 188.66 120.6 188.97C120.18 189.262 127.311 189.388 144.4 189.388C161.465 189.388 168.62 189.262 168.2 188.97C167.764 188.667 168.069 188.624 169.318 188.815C172.557 189.308 178.275 185.26 177.66 182.908C177.558 182.518 177.625 182.292 177.809 182.405C178.296 182.706 178.696 181.149 178.401 180.1C178.194 179.363 178.231 179.309 178.608 179.8C178.991 180.298 179.037 180.253 178.88 179.53C178.736 178.868 178.839 178.717 179.311 178.898C179.743 179.064 179.835 178.981 179.616 178.625C179.382 178.247 179.52 178.184 180.15 178.384C181.171 178.708 182.703 178.291 182.385 177.776C182.26 177.574 182.442 177.518 182.789 177.651C184.292 178.228 188.622 173.876 188.043 172.369C187.915 172.033 187.974 171.86 188.176 171.985C188.727 172.325 189.094 170.755 188.806 169.291C188.616 168.33 188.658 168.153 188.97 168.6C189.262 169.02 189.388 161.828 189.388 144.6C189.388 127.725 189.259 120.188 188.979 120.6C188.683 121.034 188.64 120.795 188.824 119.731C189.136 117.923 188.7 115.691 188.106 116.058C187.85 116.216 187.793 116.135 187.964 115.858C188.385 115.177 187.845 113.808 187.246 114.038C186.964 114.146 186.733 113.965 186.733 113.635C186.733 113.305 186.909 113.144 187.124 113.277C188.243 113.968 185.691 110.684 183.418 108.507L180.8 106L183.4 108.8L186 111.6L183.1 108.811C180.336 106.152 179.713 105.452 180.6 106C180.82 106.136 181 106.079 181 105.873C181 105.404 179.738 104.328 179.507 104.6C179.414 104.71 179.353 101.11 179.372 96.6C179.391 92.09 179.256 87.483 179.072 86.362L178.739 84.324L182.114 80.762L185.49 77.2L182.2 81L178.91 84.8L182.321 81.2C184.645 78.747 185.612 77.456 185.356 77.147C185.107 76.847 185.193 76.611 185.611 76.451C186.021 76.294 186.143 76.369 185.959 76.666C185.781 76.955 185.854 77.014 186.158 76.826C186.504 76.612 186.519 76.384 186.209 76.011C185.892 75.629 185.945 75.43 186.411 75.251C186.829 75.091 186.957 75.176 186.791 75.505C186.653 75.777 186.825 75.649 187.172 75.221C187.533 74.776 187.699 74.111 187.559 73.671C187.387 73.129 187.459 72.989 187.8 73.2C188.153 73.418 188.208 73.254 188 72.6C187.821 72.036 187.864 71.792 188.114 71.947C188.703 72.311 189.069 70.387 188.815 68.258C188.657 66.936 188.702 66.631 188.969 67.2C189.207 67.708 189.352 58.953 189.366 43.2C189.381 25.546 189.265 18.573 188.962 19C188.635 19.459 188.594 19.334 188.784 18.466C189.063 17.191 188.715 15.682 188.213 15.992C187.776 16.262 187.325 15.045 187.661 14.502C187.828 14.232 187.73 14.196 187.394 14.404C187.018 14.636 186.933 14.553 187.1 14.116C187.587 12.846 183.254 9.53899 181.735 10.021C181.132 10.212 180.984 10.149 181.205 9.79299C181.43 9.42699 181.14 9.34299 180.082 9.46599C179.298 9.55799 178.686 9.53499 178.723 9.41599C178.96 8.65399 177.656 6.67999 177.063 6.90199C176.466 7.12499 176.459 7.07499 177 6.39799C177.405 5.89099 177.429 5.74899 177.073 5.96299C176.702 6.18699 176.584 6.06199 176.673 5.53999C176.743 5.13299 176.599 4.83699 176.353 4.88199C176.107 4.92799 175.477 4.49699 174.953 3.92499L174 2.88499L175.2 3.58499C176.303 4.22799 176.335 4.22899 175.6 3.59699C173.636 1.90799 170.697 0.932994 168.301 1.17399C166.725 1.33199 166.252 1.28699 166.8 1.03099C167.307 0.792988 159.023 0.66099 144.2 0.66799C130.768 0.67499 121.226 0.824994 121.8 1.02099C122.469 1.24899 122.065 1.28999 120.578 1.14399C118.267 0.918987 114.818 1.58199 115.188 2.18099C115.305 2.37099 115.086 2.44399 114.701 2.34399C114.315 2.24399 113.64 2.45399 113.2 2.81099C112.76 3.16699 112.623 3.34699 112.895 3.20899C113.224 3.04299 113.309 3.17099 113.149 3.58899C112.97 4.05499 112.771 4.10799 112.389 3.79099C112.016 3.48099 111.788 3.49599 111.574 3.84199C111.373 4.16799 111.446 4.21899 111.8 3.99999C112.157 3.77899 112.227 3.83199 112.021 4.16499C111.855 4.43399 111.492 4.56699 111.214 4.46099C110.936 4.35399 109.649 5.37699 108.354 6.73299L106 9.19999L108.6 6.79999L111.2 4.39999L108.846 6.86699C107.291 8.49599 106.284 9.25399 105.88 9.09899C105.526 8.96299 105.373 9.03299 105.517 9.26599C105.68 9.52999 105.118 9.56099 103.883 9.35799C101.451 8.95699 88.817 8.94999 85.24 9.34699L82.48 9.65399L80.418 7.62699C79.284 6.51199 79.085 6.23999 79.978 7.02199C81.618 8.46099 83.537 9.90699 82.8 9.15099C81.11 7.41599 77.768 4.51599 77.872 4.87499C77.942 5.11999 77.82 5.29299 77.6 5.25999C77.38 5.22699 77.195 5.01999 77.189 4.79999C77.163 3.78499 76.545 3.34799 75.889 3.88099C75.338 4.32899 75.289 4.29699 75.534 3.64299C75.787 2.97099 75.742 2.94899 75.134 3.44299C74.527 3.93799 74.482 3.91499 74.734 3.24299C74.987 2.57099 74.942 2.54899 74.334 3.04299C73.734 3.53199 73.681 3.51699 73.905 2.91999C74.188 2.16299 72.945 1.53999 72.142 2.03599C71.869 2.20499 71.784 2.14999 71.935 1.90399C72.341 1.24799 70.378 0.940987 67.253 1.17199C65.364 1.31099 64.738 1.26399 65.4 1.03099C65.996 0.821988 56.871 0.67499 42.8 0.66799C27.82 0.66099 19.492 0.792988 20 1.03099ZM172.227 7.67099C173.24 8.66499 173.379 9.08899 173.389 11.224C173.403 14.399 173.932 15.14 175.797 14.603C178.683 13.771 181.063 14.338 182.901 16.294C183.743 17.191 184.077 35.98 183.831 68.555L183.8 72.71L180.44 75.955C175.301 80.919 173.775 82.2 172.998 82.2C171.912 82.2 171.774 83.162 172.629 84.759C173.344 86.092 173.394 86.973 173.301 96.384C173.211 105.48 173.27 106.601 173.854 106.884C175.465 107.662 182.02 113.744 183.217 115.57C183.897 116.608 184.139 168.874 183.471 170.6C182.664 172.688 181.474 173.285 177.676 173.508C173.409 173.758 173.803 173.355 173.517 177.768C173.217 182.391 172.054 183.79 168.486 183.814C150.282 183.94 116.339 183.688 115.848 183.424C115.302 183.131 111.983 179.858 106.869 174.569C105.59 173.246 104.828 173.157 102.036 174.004C98.849 174.971 89.241 174.828 86.418 173.772C83.264 172.592 83.813 172.267 77.027 179.323C75.692 180.71 74.6 181.976 74.6 182.136C74.6 184.04 19.131 184.931 16.618 183.068C14.683 181.634 13.697 179.029 14.217 176.723C14.659 174.765 14.097 174.055 12.363 174.381C10.937 174.648 8.57199 173.739 7.21199 172.4C5.93999 171.148 5.72799 117.144 6.98699 115.1C7.42799 114.385 8.06099 113.8 8.39399 113.8C8.72699 113.8 8.99999 113.627 8.99999 113.415C8.99999 112.778 12.292 109.789 13.919 108.949C15.93 107.91 16.037 107.467 14.998 104.508C13.129 99.189 13.585 87.584 15.803 83.995C16.89 82.236 16.827 81.954 15.1 80.86C13.442 79.81 8.50299 75.11 7.11199 73.259L6.22399 72.077L6.16099 47.838C6.07899 15.911 5.96399 18.098 7.83099 16.23C8.94999 15.112 9.29499 15 11.631 15H14.2V12.849C14.2 10.264 15.006 8.16799 16.43 7.04699C18.865 5.13299 74.6 5.89999 74.6 7.84799C74.6 8.18499 77.048 10.89 80.929 14.84C82.852 16.798 83.195 16.899 84.592 15.92C86.133 14.842 100.817 14.616 104.016 15.622L106.31 16.344L107.902 14.572C109.966 12.275 113.868 8.22099 114.998 7.19999C115.858 6.42299 116.592 6.39399 140.542 6.19999C168.905 5.96999 170.571 6.04699 172.227 7.67099ZM185.8 12.4C186.546 13.17 187.067 13.8 186.957 13.8C186.847 13.8 186.146 13.17 185.4 12.4C184.654 11.63 184.133 11 184.243 11C184.353 11 185.054 11.63 185.8 12.4ZM5.53799 12.417C5.40799 12.757 5.20299 12.936 5.08299 12.816C4.96299 12.696 4.57099 12.824 4.21299 13.099C3.85399 13.375 3.98499 13.195 4.50299 12.7C5.60999 11.642 5.86199 11.573 5.53799 12.417ZM37.453 36.633C36.545 36.993 36.517 37.126 36.751 39.904C36.886 41.497 37.029 46.22 37.069 50.4C37.147 58.478 37.269 59.269 38.643 60.643C39.366 61.366 39.649 61.437 40.269 61.05C40.948 60.626 40.995 60.681 40.758 61.626C40.512 62.604 40.549 62.639 41.327 62.153C41.956 61.76 42.052 61.504 41.723 61.107C40.758 59.944 41.738 60.297 42.826 61.504C43.468 62.217 43.734 62.575 43.417 62.3C42.73 61.705 42.051 61.635 42.397 62.195C42.533 62.415 42.388 62.493 42.072 62.372C41.644 62.208 41.551 62.408 41.698 63.177C41.805 63.74 42.142 64.2 42.447 64.2C42.751 64.2 43 64.487 43 64.837C43 65.188 43.36 65.569 43.8 65.684C44.24 65.799 44.6 66.155 44.6 66.474C44.6 66.851 44.917 67.007 45.5 66.918C46.015 66.84 46.348 66.544 46.279 66.227C46.207 65.897 46.722 66.104 47.552 66.736C49.067 67.892 49.613 68.084 49.155 67.3C48.994 67.025 49.249 67.139 49.722 67.553C50.461 68.202 50.589 69 49.953 69C49.843 69 49.881 68.792 50.038 68.538C50.227 68.233 50.146 68.186 49.8 68.4C49.431 68.628 49.372 68.569 49.6 68.2C49.823 67.839 49.768 67.773 49.423 67.986C49.035 68.225 49.063 68.434 49.544 68.916C50.095 69.467 50.098 69.587 49.565 69.976C49.049 70.353 49.131 70.603 50.142 71.735C50.851 72.529 51.425 72.884 51.583 72.627C51.728 72.392 52.051 72.2 52.3 72.2C52.549 72.2 52.433 72.434 52.041 72.72C51.378 73.205 51.427 73.357 52.765 74.958C53.784 76.177 54.2 77.064 54.2 78.014C54.2 79.92 53.895 79.871 66.976 80.053C80.529 80.242 81.207 80.116 80.152 77.595C79.819 76.798 79.606 73.404 79.514 67.4C79.439 62.45 79.286 57.987 79.176 57.483C78.948 56.435 77.366 55.647 76.906 56.35C76.698 56.669 76.61 56.655 76.606 56.3C76.603 56.025 76.409 55.8 76.176 55.8C75.943 55.8 75.88 56.025 76.035 56.3C76.248 56.677 76.196 56.689 75.825 56.346C75.214 55.783 73.715 56.122 74.062 56.745C74.202 56.995 73.487 56.405 72.475 55.434C71.463 54.462 70.737 53.503 70.861 53.301C70.986 53.1 70.584 52.41 69.969 51.767C69.354 51.125 69.011 50.6 69.206 50.6C69.402 50.6 68.867 49.887 68.016 49.017C67.166 48.146 66.345 47.51 66.193 47.604C66.041 47.698 65.485 47.286 64.958 46.688L64 45.6L65.2 46.6L66.4 47.6L65.432 46.502C64.899 45.897 64.374 45.493 64.264 45.602C64.155 45.712 63.704 45.486 63.264 45.101C62.685 44.594 62.554 44.567 62.791 45C62.972 45.33 62.463 44.98 61.66 44.222C59.994 42.648 59.892 42.426 60.97 42.708C61.761 42.915 61.737 42.2 60.918 41.136C60.704 40.857 60.722 40.572 60.963 40.423C61.51 40.085 61.048 39 60.357 39C60.051 39 59.8 38.749 59.8 38.443C59.8 37.467 58.564 37.287 51.148 37.187C44.728 37.099 40.911 36.852 39 36.4C38.67 36.322 37.974 36.427 37.453 36.633ZM151.223 36.563C151.099 36.763 148.254 36.953 144.899 36.986C129.365 37.137 127.4 37.46 127.4 39.856C127.4 40.319 125.793 41.766 125.256 41.787C124.746 41.806 121.615 45.074 121.219 46C120.84 46.887 120.75 47.26 120.661 48.324C120.627 48.722 120.42 48.936 120.2 48.8C119.98 48.664 119.778 48.743 119.75 48.976C119.629 49.999 119.585 50.148 119.327 50.407C118.765 50.969 118.139 50.156 118.655 49.534C118.938 49.193 118.509 49.317 117.649 49.824C116.589 50.449 116.274 50.834 116.575 51.135C116.809 51.369 116.997 51.749 116.994 51.98C116.991 52.211 116.813 52.13 116.6 51.8C116.255 51.267 116.211 51.267 116.2 51.8C116.191 52.251 116.109 52.276 115.87 51.899C115.539 51.378 110.816 54.518 110.018 55.791C109.793 56.148 109.683 60.292 109.752 65.8C109.832 72.323 109.716 75.8 109.372 77.16C108.571 80.32 108.292 80.259 122.915 80.119C137.022 79.985 136.634 80.078 135.366 77.12C134.951 76.152 134.812 75.484 135.057 75.636C135.328 75.803 135.424 75.693 135.302 75.356C135.191 75.05 134.898 74.845 134.65 74.9C132.879 75.294 136.422 71.524 141.132 68.002C142.518 66.965 146.978 61.672 145.907 62.334C144.947 62.927 145.078 61.868 146.077 60.958C146.656 60.431 146.999 60.225 146.841 60.5C146.597 60.923 147.104 61.214 147.539 60.9C147.615 60.845 147.975 61.047 148.339 61.349C148.958 61.863 149.188 61.69 149.025 60.832C148.986 60.63 149.242 60.703 149.592 60.993C150.138 61.447 150.41 61.337 151.497 60.225L152.765 58.928L152.824 51.664C152.857 47.669 153.116 42.843 153.4 40.941C153.684 39.038 153.806 37.193 153.671 36.841C153.409 36.159 151.599 35.954 151.223 36.563ZM127.357 41.356C126.83 41.782 126.313 42.044 126.206 41.938C126.099 41.832 126.457 41.41 127 41C128.287 40.029 128.604 40.344 127.357 41.356ZM131.261 41.7C131.159 41.865 134.928 41.945 139.638 41.878C145.737 41.791 148.2 41.884 148.2 42.202C148.2 42.447 148.38 42.536 148.6 42.4C148.861 42.239 149 44.604 149 49.2C149 54.436 148.881 56.174 148.537 55.961C148.217 55.763 148.147 55.953 148.31 56.577C148.44 57.073 148.469 57.402 148.375 57.308C148.144 57.077 136.109 69.227 136.142 69.658C136.156 69.846 135.499 70.706 134.684 71.568C133.359 72.967 133.447 72.927 135.5 71.191C137.727 69.309 139.647 68.338 138.565 69.642C138.302 69.959 137.994 70.127 137.881 70.014C137.768 69.901 136.714 70.631 135.538 71.635C134.362 72.64 133.4 73.33 133.4 73.169C133.4 73.008 133.085 73.158 132.7 73.502C132.109 74.031 130.758 74.119 124 74.064L116 74L116.056 65.6C116.125 55.183 115.821 56.34 119.386 52.905L122.4 50L119.41 53.1C117.766 54.805 116.508 56.2 116.614 56.2C116.721 56.2 119.867 53.096 123.604 49.301C127.342 45.507 128.555 44.199 126.3 46.394C124.045 48.589 122.2 50.19 122.2 49.951C122.2 49.085 129.727 42.197 130.394 42.453C130.745 42.588 131.004 42.541 130.969 42.349C130.87 41.805 130.978 41.4 131.224 41.4C131.347 41.4 131.364 41.535 131.261 41.7ZM57.126 42.243C57.607 42.486 61.598 46.221 65.996 50.543C70.393 54.864 72.913 57.23 71.596 55.8L69.2 53.2L71.667 55.554C73.296 57.109 74.054 58.116 73.899 58.52C73.77 58.856 73.83 59.029 74.032 58.903C74.254 58.766 74.321 61.721 74.2 66.337L74 74L66.2 74.2L58.4 74.4L57.04 73.2C56.292 72.54 55.821 72.27 55.993 72.6C56.165 72.93 54.138 71.058 51.488 68.441C48.31 65.302 46.715 63.443 46.804 62.981C46.878 62.596 46.457 61.858 45.869 61.341L44.8 60.4L45.791 61.6C46.336 62.26 45.676 61.741 44.324 60.446C42.703 58.892 41.947 57.883 42.101 57.48C42.23 57.144 42.17 56.971 41.968 57.097C41.747 57.234 41.647 54.217 41.716 49.562L41.833 41.8H49.043C53.518 41.8 56.584 41.968 57.126 42.243ZM64 47.8L69.575 53.6L63.888 48.005C60.759 44.928 58.2 42.243 58.2 42.039C58.2 41.834 58.251 41.742 58.313 41.833C58.375 41.925 60.934 44.61 64 47.8ZM122.443 46.388C122.318 47.236 121.925 47.525 121.366 47.179C121.009 46.958 121.075 46.734 121.616 46.339C122.532 45.669 122.548 45.67 122.443 46.388ZM68.378 48.235C68.231 48.474 68.294 48.854 68.52 49.08C69.025 49.585 69.8 49.158 69.8 48.376C69.8 47.703 68.771 47.6 68.378 48.235ZM122.2 48.73C122.2 48.802 121.721 49.297 121.135 49.83C120.55 50.364 120.201 50.575 120.359 50.3C120.526 50.011 120.426 49.786 120.124 49.768C119.836 49.75 120.14 49.488 120.8 49.186C122.155 48.565 122.2 48.55 122.2 48.73ZM68.8 51.4C69.883 52.5 70.68 53.4 70.57 53.4C70.46 53.4 69.483 52.5 68.4 51.4C67.317 50.3 66.52 49.4 66.63 49.4C66.74 49.4 67.717 50.3 68.8 51.4ZM118.155 51.255C117.772 51.716 117.605 51.732 117.356 51.329C117.181 51.045 117.245 50.696 117.502 50.537C118.223 50.092 118.692 50.607 118.155 51.255ZM148.553 57.9C148.453 57.955 145.588 60.7 142.186 64L136 70L141.995 63.9C145.292 60.545 148.157 57.8 148.362 57.8C148.566 57.8 148.652 57.845 148.553 57.9ZM48.4 65C49.259 65.88 50.052 66.6 50.162 66.6C50.272 66.6 49.659 65.88 48.8 65C47.941 64.12 47.148 63.4 47.038 63.4C46.928 63.4 47.541 64.12 48.4 65ZM46.712 67.423C46.78 68.332 47.22 68.445 47.532 67.633C47.652 67.321 47.503 66.972 47.201 66.856C46.844 66.719 46.673 66.916 46.712 67.423ZM140.85 68.815C140.714 69.169 140.872 69.53 141.224 69.665C142.007 69.965 142.364 69.604 142.062 68.817C141.758 68.026 141.153 68.025 140.85 68.815ZM5.66099 78.072C5.51099 78.222 5.88599 78.897 6.49399 79.572L7.59999 80.8L6.31399 79.639C5.19599 78.629 4.91499 77.8 5.68999 77.8C5.82399 77.8 5.81099 77.923 5.66099 78.072ZM110.426 110.82C109.881 111.097 109.63 111.574 109.688 112.22C109.915 114.748 109.888 131.734 109.656 132.109C108.869 133.382 114.165 138.606 115.661 138.032C116.074 137.874 116.22 137.97 116.089 138.312C115.979 138.599 116.139 139.175 116.444 139.593C116.75 140.011 117.003 140.184 117.006 139.976C117.009 139.769 117.175 139.857 117.373 140.17C117.797 140.839 119.4 141.177 119.4 140.597C119.4 140.379 119.265 140.245 119.1 140.3C118.935 140.355 118.755 140.22 118.7 140C118.645 139.78 118.825 139.589 119.1 139.575C119.773 139.542 120.601 140.193 120.594 140.749C120.591 140.997 120.413 140.93 120.2 140.6C119.956 140.223 119.81 140.181 119.806 140.486C119.803 140.753 120.179 141.175 120.643 141.423C121.259 141.753 121.367 141.993 121.043 142.317C120.399 142.961 120.499 143.395 121.3 143.432C121.685 143.449 121.794 143.548 121.542 143.651C121.063 143.847 121.279 145.4 121.785 145.4C121.946 145.4 122.774 146.075 123.625 146.9C124.476 147.725 125.296 148.361 125.448 148.313C125.599 148.265 125.943 148.49 126.211 148.813C126.479 149.136 126.884 149.4 127.111 149.4C127.338 149.4 127.181 149.007 126.762 148.527L126 147.655L127.063 148.427C127.648 148.852 127.963 149.26 127.763 149.333C127.075 149.586 127.402 150.863 128.393 151.793C129.369 152.711 129.553 152.728 139.887 152.899C145.662 152.994 150.694 153.236 151.068 153.436C153.319 154.641 154.338 153.471 153.398 150.76C153.177 150.122 152.952 145.072 152.898 139.538L152.8 129.477L151.679 128.438C150.555 127.396 149.4 127.065 149.4 127.786C149.4 127.998 148.986 127.773 148.48 127.286C147.363 126.21 147.468 125.775 148.598 126.798C149.039 127.197 149.4 127.338 149.4 127.111C149.4 126.884 149.13 126.474 148.8 126.2C148.47 125.926 148.194 125.499 148.187 125.251C148.171 124.727 146.801 123 146.4 123C146.251 123 145.796 122.595 145.39 122.1C144.754 121.324 144.539 121.269 143.831 121.7C143.38 121.975 142.873 122.195 142.705 122.188C142.537 122.181 142.715 121.992 143.1 121.768C143.485 121.544 143.8 121.167 143.8 120.931C143.8 120.659 143.577 120.687 143.191 121.008C142.675 121.435 142.619 121.397 142.823 120.757C143.055 120.033 143.038 120.034 142.433 120.776C142.085 121.204 141.8 121.344 141.8 121.089C141.8 120.834 141.548 120.722 141.24 120.84C140.933 120.958 140.562 120.862 140.417 120.627C140.272 120.392 140.428 120.2 140.764 120.2C141.157 120.2 141.288 119.974 141.132 119.566C140.957 119.11 140.806 119.066 140.594 119.409C140.37 119.772 140.231 119.774 140.01 119.416C139.847 119.153 140.043 118.71 140.456 118.409C141.153 117.899 141.123 117.804 139.906 116.641C139.198 115.965 138.165 114.515 137.61 113.42C137.055 112.325 136.286 111.26 135.901 111.055C134.882 110.511 111.457 110.295 110.426 110.82ZM54.732 111.094C53.66 111.587 53.124 113.398 53.874 113.984C54.167 114.213 54.345 114.825 54.269 115.344C54.169 116.038 54.274 116.209 54.666 115.987C54.96 115.82 54.405 116.513 53.434 117.525C52.462 118.537 51.529 119.28 51.359 119.175C51.189 119.07 50.067 119.785 48.865 120.765C47.662 121.744 46.597 122.463 46.496 122.363C46.396 122.263 46.063 122.5 45.757 122.89C45.251 123.536 45.263 123.55 45.9 123.051C46.927 122.246 46.758 122.826 45.385 124.822C43.874 127.017 42.805 127.663 41.898 126.928C41.423 126.543 41.328 126.535 41.547 126.9C41.861 127.422 41.474 127.543 39.9 127.416C39.249 127.363 39 127.559 39 128.125C39 128.555 38.666 128.994 38.258 129.101C37.287 129.355 36.995 131.985 37.023 140.2C37.035 143.61 36.855 147.37 36.622 148.555C35.607 153.734 35.994 154.067 42.102 153.27C44.466 152.962 48.29 152.781 50.6 152.868C57.843 153.139 61.4 152.102 61.4 149.718C61.4 149.297 61.58 149.064 61.8 149.2C62.02 149.336 62.2 149.276 62.2 149.066C62.2 148.857 61.928 148.581 61.596 148.454C61.264 148.327 61.016 148.082 61.044 147.911C61.186 147.044 60.952 146.58 60.5 146.836C60.225 146.992 60.62 146.463 61.378 145.66C62.776 144.18 63.626 143.615 62.523 144.9C60.976 146.701 61.299 147.024 63.1 145.477C63.485 145.147 63.8 144.966 63.8 145.076C63.8 145.185 64.742 144.409 65.893 143.351C67.241 142.112 68.124 141.564 68.373 141.813C68.965 142.405 69.8 142.273 69.8 141.587C69.8 141.251 69.533 140.873 69.207 140.747C68.135 140.336 72.988 134.599 74.9 134.019C75.422 133.861 75.8 133.917 75.8 134.152C75.8 134.662 78.152 133.926 78.974 133.16C79.542 132.629 79.79 111.954 79.239 111.062C78.938 110.576 55.792 110.606 54.732 111.094ZM132.758 115.868C132.569 116.174 132.68 116.255 133.078 116.102C133.485 115.946 134.672 116.889 136.644 118.934L139.6 122L136.5 119.01C134.795 117.366 133.4 116.107 133.4 116.214C133.4 116.321 136.684 119.646 140.699 123.604C144.864 127.711 146.109 128.825 143.599 126.2L139.2 121.6L143.665 125.958C146.68 128.901 148.054 130.514 147.897 130.924C147.769 131.258 147.83 131.428 148.032 131.303C148.242 131.172 148.372 132.045 148.335 133.337C148.276 135.433 148.293 135.482 148.579 134C148.772 132.994 148.908 135.331 148.943 140.3C148.987 146.431 148.888 148.178 148.5 148.1C148.225 148.045 148.045 148.225 148.1 148.5C148.177 148.887 146.382 149 140.176 149C134.201 149 132.226 148.882 132.439 148.537C132.635 148.22 132.453 148.145 131.862 148.3C131.303 148.446 131.093 148.373 131.265 148.095C131.428 147.831 131.296 147.754 130.924 147.897C130.514 148.054 128.84 146.619 125.759 143.465L121.2 138.8L125.9 143.393C128.485 145.92 130.6 147.898 130.6 147.789C130.6 147.681 127.317 144.354 123.304 140.396C119.291 136.438 117.176 134.46 118.604 136L121.2 138.8L118.534 136.245C116.766 134.551 115.946 133.484 116.102 133.079C116.231 132.744 116.17 132.571 115.968 132.697C115.746 132.834 115.679 129.566 115.8 124.463L116 116L124.4 115.788C129.02 115.671 132.856 115.536 132.924 115.488C132.992 115.439 132.917 115.611 132.758 115.868ZM74.064 124C74.116 130.395 74.015 132.127 73.563 132.632C73.253 132.98 73.087 133.353 73.195 133.462C73.55 133.817 70.966 136 70.191 136C69.493 136 56.941 148.008 57.283 148.349C57.362 148.429 56.926 148.414 56.314 148.316C55.445 148.177 55.332 148.231 55.8 148.563C56.233 148.869 54.375 148.989 49.129 148.994L41.859 149L41.816 140.54C41.792 135.887 41.661 131.899 41.525 131.678C41.373 131.432 41.482 131.403 41.806 131.604C42.184 131.838 42.267 131.752 42.095 131.303C41.95 130.927 42.203 130.38 42.727 129.938L43.6 129.2L42.806 130.2C42.131 131.051 42.203 131.027 43.292 130.039C43.996 129.4 44.485 128.738 44.379 128.566C44.273 128.395 44.373 128.14 44.6 128C44.827 127.86 44.928 127.608 44.825 127.44C44.722 127.273 45.664 126.161 46.918 124.968L49.2 122.8L47 125.2L44.8 127.6L47.09 125.423C48.35 124.226 49.289 123.156 49.178 123.044C48.727 122.594 55.547 116.224 56.041 116.634C56.376 116.912 56.622 116.888 56.826 116.558C57.027 116.232 56.954 116.181 56.6 116.4C56.269 116.605 56.173 116.567 56.34 116.297C56.516 116.012 59.504 115.892 65.302 115.935L74 116L74.064 124ZM47.876 119.297C47.949 119.679 48.367 120.035 48.805 120.088C49.242 120.142 49.374 120.084 49.098 119.959C48.821 119.834 48.685 119.586 48.795 119.408C48.905 119.23 48.713 118.976 48.369 118.843C47.926 118.673 47.781 118.806 47.876 119.297ZM51.4 119.522C51.4 119.588 50.725 120.263 49.9 121.022L48.4 122.4L49.778 120.9C51.062 119.504 51.4 119.216 51.4 119.522ZM42.2 127.95C42.2 128.279 41.772 128.5 41.133 128.5H40.066L41.033 127.964C42.244 127.293 42.2 127.294 42.2 127.95ZM71.575 134.7L70.4 136L71.7 134.825C72.912 133.73 73.184 133.4 72.875 133.4C72.806 133.4 72.221 133.985 71.575 134.7ZM63.986 142.3C60.694 145.655 57.919 148.349 57.819 148.286C57.624 148.163 69.464 136.2 69.781 136.2C69.885 136.2 67.278 138.945 63.986 142.3ZM118.1 139.633C117.719 140.015 116.955 139.397 117.239 138.938C117.407 138.664 117.631 138.671 117.918 138.958C118.154 139.194 118.236 139.498 118.1 139.633ZM186.6 175.186C186.6 175.472 183.664 177.4 183.227 177.4C183.014 177.4 183.64 176.874 184.62 176.231C186.614 174.922 186.6 174.929 186.6 175.186ZM176.509 184.892C175.954 185.721 174.893 186.73 174.15 187.133L172.8 187.867L173.8 187.042C174.35 186.589 174.946 186.214 175.124 186.209C175.302 186.204 175.319 185.992 175.162 185.738C174.999 185.475 175.051 185.384 175.281 185.527C175.504 185.664 176.019 185.159 176.426 184.404C176.832 183.649 177.244 183.111 177.341 183.208C177.438 183.305 177.063 184.062 176.509 184.892ZM12.6 185.6C13.346 186.37 13.867 187 13.757 187C13.647 187 12.946 186.37 12.2 185.6C11.454 184.83 10.933 184.2 11.043 184.2C11.153 184.2 11.854 184.83 12.6 185.6Z" fill="#FBFBFB"/>
<path fill-rule="evenodd" clip-rule="evenodd" d="M65.3 1.28198C65.795 1.37798 66.605 1.37798 67.1 1.28198C67.595 1.18698 67.19 1.10899 66.2 1.10899C65.21 1.10899 64.805 1.18698 65.3 1.28198ZM166.7 1.27599C167.085 1.37599 167.715 1.37599 168.1 1.27599C168.485 1.17499 168.17 1.09299 167.4 1.09299C166.63 1.09299 166.315 1.17499 166.7 1.27599ZM12.799 3.85499C11.107 5.33999 10.225 6.71899 11.208 6.34199C11.553 6.20899 11.734 6.00098 11.612 5.87798C11.309 5.57498 13.446 3.38098 13.819 3.61198C13.983 3.71298 14.219 3.52598 14.346 3.19798C14.678 2.33098 14.4 2.44899 12.799 3.85499ZM73.8 3.02399C73.8 3.25699 73.98 3.33598 74.2 3.19998C74.42 3.06398 74.6 3.15399 74.6 3.39999C74.6 3.64599 74.78 3.73598 75 3.59998C75.22 3.46398 75.4 3.55399 75.4 3.79999C75.4 4.04599 75.572 4.14099 75.782 4.01099C75.993 3.88099 76.462 4.22898 76.826 4.78398C77.19 5.33898 77.619 5.71198 77.78 5.61198C77.941 5.51298 78.687 6.06998 79.437 6.84998C80.186 7.63098 81.34 8.64599 82 9.10599C82.66 9.56599 81.962 8.78599 80.449 7.37199C76.471 3.65299 73.8 1.90599 73.8 3.02399ZM111.56 4.15398C110.702 4.78798 109.1 6.26498 108 7.43598C106.528 9.00398 106.822 8.80098 109.116 6.66898C110.829 5.07598 112.386 3.86699 112.574 3.98399C112.762 4.09999 113.019 3.92598 113.146 3.59798C113.455 2.78998 113.358 2.82398 111.56 4.15398ZM175.514 4.53699C176.346 5.46899 176.92 6.40498 176.79 6.61598C176.66 6.82698 176.743 6.99998 176.976 6.99998C177.932 6.99998 176.539 4.58399 174.958 3.49899C174.328 3.06699 174.519 3.42299 175.514 4.53699ZM140.542 6.19998C116.592 6.39398 115.858 6.42298 114.998 7.19998C113.868 8.22098 109.966 12.275 107.902 14.572L106.31 16.344L104.016 15.622C100.817 14.616 86.133 14.842 84.592 15.92C83.195 16.899 82.852 16.798 80.929 14.84C77.048 10.89 74.6 8.18498 74.6 7.84798C74.6 5.89998 18.865 5.13298 16.43 7.04698C15.006 8.16798 14.2 10.264 14.2 12.849V15H11.631C9.29498 15 8.94999 15.112 7.83099 16.23C5.96399 18.098 6.07899 15.911 6.16099 47.838L6.22398 72.077L7.11198 73.259C8.50298 75.11 13.442 79.81 15.1 80.86C16.827 81.954 16.89 82.236 15.803 83.995C13.585 87.584 13.129 99.189 14.998 104.508C16.037 107.467 15.93 107.91 13.919 108.949C12.292 109.789 8.99998 112.778 8.99998 113.415C8.99998 113.627 8.72698 113.8 8.39398 113.8C8.06098 113.8 7.42798 114.385 6.98698 115.1C5.72798 117.144 5.93998 171.148 7.21198 172.4C8.57198 173.739 10.937 174.648 12.363 174.381C14.097 174.055 14.659 174.765 14.217 176.723C13.697 179.029 14.683 181.634 16.618 183.068C19.131 184.931 74.6 184.04 74.6 182.136C74.6 181.976 75.692 180.71 77.027 179.323C83.813 172.267 83.264 172.592 86.418 173.772C89.241 174.828 98.849 174.971 102.036 174.004C104.828 173.157 105.59 173.246 106.869 174.569C111.983 179.858 115.302 183.131 115.848 183.424C116.339 183.688 150.282 183.94 168.486 183.814C172.054 183.79 173.217 182.391 173.517 177.768C173.803 173.355 173.409 173.758 177.676 173.508C181.474 173.285 182.664 172.688 183.471 170.6C184.139 168.874 183.897 116.608 183.217 115.57C182.02 113.744 175.465 107.662 173.854 106.884C173.27 106.601 173.211 105.48 173.301 96.384C173.394 86.973 173.344 86.092 172.629 84.759C171.774 83.162 171.912 82.2 172.998 82.2C173.775 82.2 175.301 80.919 180.44 75.955L183.8 72.71L183.831 68.555C184.077 35.98 183.743 17.191 182.901 16.294C181.063 14.338 178.683 13.771 175.797 14.603C173.932 15.14 173.403 14.399 173.389 11.224C173.364 5.84398 173.922 5.92898 140.542 6.19998ZM185.669 12.642C186.571 13.655 187.436 14.883 187.591 15.372C187.746 15.861 187.96 16.173 188.066 16.067C188.433 15.7 187.062 13.594 185.548 12.2L184.028 10.8L185.669 12.642ZM4.76299 12.5C4.09899 13.105 3.85098 13.375 4.20998 13.099C4.56998 12.824 4.93998 12.659 5.03198 12.732C5.12498 12.806 5.51499 12.537 5.89999 12.133C6.99299 10.988 6.10899 11.273 4.76299 12.5ZM1.10098 21.2C1.10498 22.08 1.18698 22.393 1.28298 21.895C1.37898 21.398 1.37499 20.678 1.27499 20.295C1.17499 19.913 1.09598 20.32 1.10098 21.2ZM41.748 36.815C42.929 36.965 47.159 37.133 51.148 37.187C58.564 37.287 59.8 37.467 59.8 38.443C59.8 38.749 60.051 39 60.357 39C61.048 39 61.51 40.085 60.963 40.423C60.722 40.572 60.704 40.857 60.918 41.136C61.737 42.2 61.761 42.915 60.97 42.708C59.892 42.426 59.994 42.648 61.66 44.222C62.463 44.98 62.972 45.33 62.791 45C62.554 44.567 62.685 44.594 63.264 45.101C63.704 45.486 64.155 45.712 64.264 45.602C64.374 45.493 64.899 45.897 65.432 46.502L66.4 47.6L65.2 46.6L64 45.6L64.958 46.688C65.485 47.286 66.041 47.698 66.193 47.604C66.345 47.51 67.166 48.146 68.016 49.017C68.867 49.887 69.402 50.6 69.206 50.6C69.011 50.6 69.354 51.125 69.969 51.767C70.584 52.41 70.986 53.1 70.861 53.301C70.737 53.503 71.463 54.462 72.475 55.434C73.487 56.405 74.202 56.995 74.062 56.745C73.715 56.122 75.214 55.783 75.825 56.346C76.196 56.689 76.248 56.677 76.035 56.3C75.88 56.025 75.943 55.8 76.176 55.8C76.409 55.8 76.603 56.025 76.606 56.3C76.61 56.655 76.698 56.669 76.906 56.35C77.366 55.647 78.948 56.435 79.176 57.483C79.286 57.987 79.439 62.45 79.514 67.4C79.606 73.404 79.819 76.798 80.152 77.595C81.207 80.116 80.529 80.242 66.976 80.053C53.895 79.871 54.2 79.92 54.2 78.014C54.2 77.064 53.784 76.177 52.765 74.958C51.427 73.357 51.378 73.205 52.041 72.72C52.433 72.434 52.549 72.2 52.3 72.2C52.051 72.2 51.728 72.392 51.583 72.627C51.425 72.884 50.851 72.529 50.142 71.735C49.131 70.603 49.049 70.353 49.565 69.976C50.098 69.587 50.095 69.467 49.544 68.916C49.063 68.434 49.035 68.225 49.423 67.986C49.768 67.773 49.823 67.839 49.6 68.2C49.372 68.569 49.431 68.628 49.8 68.4C50.146 68.186 50.227 68.233 50.038 68.538C49.881 68.792 49.843 69 49.953 69C50.589 69 50.461 68.202 49.722 67.553C49.249 67.139 48.994 67.025 49.155 67.3C49.613 68.084 49.067 67.892 47.552 66.736C46.722 66.104 46.207 65.897 46.279 66.227C46.348 66.544 46.015 66.84 45.5 66.918C44.917 67.007 44.6 66.851 44.6 66.474C44.6 66.155 44.24 65.799 43.8 65.684C43.36 65.569 43 65.188 43 64.837C43 64.487 42.751 64.2 42.447 64.2C42.142 64.2 41.805 63.74 41.698 63.177C41.551 62.408 41.644 62.208 42.072 62.372C42.388 62.493 42.533 62.415 42.397 62.195C42.051 61.635 42.73 61.705 43.417 62.3C43.734 62.575 43.468 62.217 42.826 61.504C41.738 60.297 40.758 59.944 41.723 61.107C42.052 61.504 41.956 61.76 41.327 62.153C40.549 62.639 40.512 62.604 40.758 61.626C40.995 60.681 40.948 60.626 40.269 61.05C39.649 61.437 39.366 61.366 38.643 60.643C37.269 59.269 37.147 58.478 37.069 50.4C37.029 46.22 36.886 41.497 36.751 39.904C36.494 36.86 37.081 35.946 39 36.4C39.33 36.478 40.566 36.665 41.748 36.815ZM153.671 36.841C153.806 37.193 153.684 39.038 153.4 40.941C153.116 42.843 152.857 47.669 152.824 51.664L152.765 58.928L151.497 60.225C150.41 61.337 150.138 61.447 149.592 60.993C149.242 60.703 148.986 60.63 149.025 60.832C149.188 61.69 148.958 61.863 148.339 61.349C147.975 61.047 147.615 60.845 147.539 60.9C147.153 61.178 146.585 60.948 146.8 60.6C147.269 59.841 146.753 60.204 145.444 61.555C144.601 62.425 144.29 63.008 144.575 63.185C144.82 63.336 144.97 63.245 144.91 62.983C144.849 62.721 145.113 62.454 145.496 62.389C146.462 62.227 143.137 66.502 141.132 68.002C136.422 71.524 132.879 75.294 134.65 74.9C134.898 74.845 135.191 75.05 135.302 75.356C135.424 75.693 135.328 75.803 135.057 75.636C134.812 75.484 134.951 76.152 135.366 77.12C136.634 80.078 137.022 79.985 122.915 80.119C108.292 80.259 108.571 80.32 109.372 77.16C109.716 75.8 109.832 72.323 109.752 65.8C109.683 60.292 109.793 56.148 110.018 55.791C110.816 54.518 115.539 51.378 115.87 51.899C116.109 52.276 116.191 52.251 116.2 51.8C116.211 51.267 116.255 51.267 116.6 51.8C116.813 52.13 116.991 52.211 116.994 51.98C116.997 51.749 116.809 51.369 116.575 51.135C116.274 50.834 116.589 50.449 117.649 49.824C118.509 49.317 118.938 49.193 118.655 49.534C118.139 50.156 118.765 50.969 119.327 50.407C119.585 50.148 119.629 49.999 119.75 48.976C119.778 48.743 119.98 48.664 120.2 48.8C120.42 48.936 120.627 48.722 120.661 48.324C120.75 47.26 120.84 46.887 121.219 46C121.615 45.074 124.746 41.806 125.256 41.787C125.793 41.766 127.4 40.319 127.4 39.856C127.4 37.46 129.365 37.137 144.899 36.986C148.254 36.953 151.099 36.763 151.223 36.563C151.599 35.954 153.409 36.159 153.671 36.841ZM127 41C126.457 41.41 126.099 41.832 126.206 41.938C126.313 42.044 126.83 41.782 127.357 41.356C128.604 40.344 128.287 40.029 127 41ZM58.2 42.037C58.2 42.241 61.841 46.006 66.291 50.404L74.382 58.4L66.395 50.2C62.003 45.69 58.362 41.925 58.304 41.833C58.247 41.742 58.2 41.833 58.2 42.037ZM128.8 43.155C128.14 43.676 125.003 46.869 121.829 50.251L116.057 56.4L123.129 49.404C127.018 45.557 130.2 42.362 130.2 42.304C130.2 42.092 129.973 42.23 128.8 43.155ZM148.765 49.2C148.766 53.16 148.826 54.726 148.898 52.68C148.971 50.634 148.971 47.394 148.898 45.48C148.824 43.566 148.765 45.24 148.765 49.2ZM121.616 46.339C121.075 46.734 121.009 46.958 121.366 47.179C121.925 47.525 122.318 47.236 122.443 46.388C122.548 45.67 122.532 45.669 121.616 46.339ZM69.8 48.376C69.8 49.158 69.025 49.585 68.52 49.08C68.294 48.854 68.231 48.474 68.378 48.235C68.771 47.6 69.8 47.703 69.8 48.376ZM120.8 49.186C120.14 49.488 119.836 49.75 120.124 49.768C120.426 49.786 120.526 50.011 120.359 50.3C120.201 50.575 120.55 50.364 121.135 49.83C122.661 48.44 122.616 48.354 120.8 49.186ZM68.4 51.4C69.483 52.5 70.46 53.4 70.57 53.4C70.68 53.4 69.883 52.5 68.8 51.4C67.717 50.3 66.74 49.4 66.63 49.4C66.52 49.4 67.317 50.3 68.4 51.4ZM117.502 50.537C117.245 50.696 117.181 51.045 117.356 51.329C117.605 51.732 117.772 51.716 118.155 51.255C118.692 50.607 118.223 50.092 117.502 50.537ZM44.322 60.522C45.808 62.019 46.934 63.333 46.825 63.442C46.716 63.55 48.781 65.788 51.414 68.414C54.046 71.039 56.2 73.022 56.2 72.819C56.2 72.616 56.785 72.974 57.5 73.614C58.215 74.254 55.022 70.958 50.404 66.289C45.786 61.62 41.92 57.8 41.814 57.8C41.708 57.8 42.837 59.025 44.322 60.522ZM139.796 66.082C135.288 70.637 132.005 74.029 132.5 73.62C132.995 73.211 133.4 73.008 133.4 73.169C133.4 73.33 134.362 72.64 135.538 71.635C136.714 70.631 137.768 69.901 137.881 70.014C137.994 70.127 138.302 69.959 138.565 69.642C139.285 68.774 138.053 69.047 137.017 69.985C136.565 70.394 136.11 70.643 136.006 70.539C135.902 70.435 138.661 67.527 142.137 64.075C145.613 60.624 148.352 57.8 148.225 57.8C148.097 57.8 144.304 61.527 139.796 66.082ZM48.8 65C49.659 65.88 50.272 66.6 50.162 66.6C50.052 66.6 49.259 65.88 48.4 65C47.541 64.12 46.928 63.4 47.038 63.4C47.148 63.4 47.941 64.12 48.8 65ZM1.09299 67C1.09299 67.77 1.17499 68.085 1.27599 67.7C1.37599 67.315 1.37599 66.685 1.27599 66.3C1.17499 65.915 1.09299 66.23 1.09299 67ZM47.532 67.633C47.22 68.445 46.78 68.332 46.712 67.423C46.673 66.916 46.844 66.719 47.201 66.856C47.503 66.972 47.652 67.321 47.532 67.633ZM142.062 68.817C142.364 69.604 142.007 69.965 141.224 69.665C140.872 69.53 140.714 69.169 140.85 68.815C141.153 68.025 141.758 68.026 142.062 68.817ZM135.8 70.725C135.8 70.794 135.215 71.379 134.5 72.025L133.2 73.2L134.375 71.9C135.47 70.688 135.8 70.416 135.8 70.725ZM186.2 75.4C185.87 75.613 185.78 75.796 186 75.807C186.22 75.817 186.051 76.09 185.624 76.413C185.196 76.736 184.989 77 185.162 77C185.336 77 183.908 78.755 181.988 80.9L178.499 84.8L182.117 81C184.106 78.91 186.029 76.705 186.39 76.1C187.108 74.895 187.089 74.825 186.2 75.4ZM4.52599 77.6C4.96399 78.26 5.83398 79.249 6.46098 79.799L7.59998 80.797L6.49399 79.571C5.88599 78.896 5.48099 78.222 5.59399 78.072C5.70699 77.923 5.68799 77.882 5.54999 77.983C5.41299 78.084 4.94698 77.769 4.51598 77.283C3.75498 76.428 3.75599 76.438 4.52599 77.6ZM182.8 108.6C184.328 110.14 185.669 111.4 185.779 111.4C185.889 111.4 184.728 110.14 183.2 108.6C181.672 107.06 180.331 105.8 180.221 105.8C180.111 105.8 181.272 107.06 182.8 108.6ZM6.70399 108.9C3.71099 112.297 2.60998 113.925 3.54698 113.565C3.90398 113.428 4.09498 113.154 3.97198 112.955C3.84998 112.757 4.02999 112.487 4.37199 112.355C4.71499 112.224 4.90799 111.975 4.80099 111.802C4.69399 111.629 5.36999 110.797 6.30299 109.954C7.23599 109.111 7.96599 108.327 7.92399 108.211C7.88299 108.095 8.22898 107.595 8.69398 107.1C9.15898 106.605 9.43698 106.2 9.31098 106.2C9.18498 106.2 8.01199 107.415 6.70399 108.9ZM135.901 111.055C136.286 111.26 137.055 112.325 137.61 113.42C138.165 114.515 139.198 115.965 139.906 116.641C141.123 117.804 141.153 117.899 140.456 118.409C140.043 118.71 139.847 119.153 140.01 119.416C140.231 119.774 140.37 119.772 140.594 119.409C140.806 119.066 140.957 119.11 141.132 119.566C141.288 119.974 141.157 120.2 140.764 120.2C140.428 120.2 140.272 120.392 140.417 120.627C140.562 120.862 140.933 120.958 141.24 120.84C141.548 120.722 141.8 120.834 141.8 121.089C141.8 121.344 142.085 121.204 142.433 120.776C143.038 120.034 143.055 120.033 142.823 120.757C142.619 121.397 142.675 121.435 143.191 121.008C143.577 120.687 143.8 120.659 143.8 120.931C143.8 121.167 143.485 121.544 143.1 121.768C142.715 121.992 142.537 122.181 142.705 122.188C142.873 122.195 143.38 121.975 143.831 121.7C144.539 121.269 144.754 121.324 145.39 122.1C145.796 122.595 146.251 123 146.4 123C146.801 123 148.171 124.727 148.187 125.251C148.194 125.499 148.47 125.926 148.8 126.2C149.13 126.474 149.4 126.884 149.4 127.111C149.4 127.338 149.039 127.197 148.598 126.798C147.468 125.775 147.363 126.21 148.48 127.286C148.986 127.773 149.4 127.998 149.4 127.786C149.4 127.065 150.555 127.396 151.679 128.438L152.8 129.477L152.898 139.538C152.952 145.072 153.177 150.122 153.398 150.76C154.338 153.471 153.319 154.641 151.068 153.436C150.694 153.236 145.662 152.994 139.887 152.899C129.553 152.728 129.369 152.711 128.393 151.793C127.402 150.863 127.075 149.586 127.763 149.333C127.963 149.26 127.648 148.852 127.063 148.427L126 147.655L126.762 148.527C127.181 149.007 127.338 149.4 127.111 149.4C126.884 149.4 126.479 149.136 126.211 148.813C125.943 148.49 125.599 148.265 125.448 148.313C125.296 148.361 124.476 147.725 123.625 146.9C122.774 146.075 121.946 145.4 121.785 145.4C121.279 145.4 121.063 143.847 121.542 143.651C121.794 143.548 121.685 143.449 121.3 143.432C120.499 143.395 120.399 142.961 121.043 142.317C121.367 141.993 121.259 141.753 120.643 141.423C120.179 141.175 119.803 140.753 119.806 140.486C119.81 140.181 119.956 140.223 120.2 140.6C120.413 140.93 120.591 140.997 120.594 140.749C120.601 140.193 119.773 139.542 119.1 139.575C118.825 139.589 118.645 139.78 118.7 140C118.755 140.22 118.935 140.355 119.1 140.3C119.265 140.245 119.4 140.379 119.4 140.597C119.4 141.177 117.797 140.839 117.373 140.17C117.175 139.857 117.009 139.769 117.006 139.976C117.003 140.184 116.75 140.011 116.444 139.593C116.139 139.175 115.979 138.599 116.089 138.312C116.22 137.97 116.074 137.874 115.661 138.032C114.165 138.606 108.869 133.382 109.656 132.109C109.888 131.734 109.915 114.748 109.688 112.22C109.63 111.574 109.881 111.097 110.426 110.82C111.457 110.295 134.882 110.511 135.901 111.055ZM79.239 111.062C79.79 111.954 79.542 132.629 78.974 133.16C78.152 133.926 75.8 134.662 75.8 134.152C75.8 133.917 75.422 133.861 74.9 134.019C72.988 134.599 68.135 140.336 69.207 140.747C69.533 140.873 69.8 141.251 69.8 141.587C69.8 142.273 68.965 142.405 68.373 141.813C68.124 141.564 67.241 142.112 65.893 143.351C64.742 144.409 63.8 145.185 63.8 145.076C63.8 144.966 63.485 145.147 63.1 145.477C61.299 147.024 60.976 146.701 62.523 144.9C63.626 143.615 62.776 144.18 61.378 145.66C60.62 146.463 60.225 146.992 60.5 146.836C60.952 146.58 61.186 147.044 61.044 147.911C61.016 148.082 61.264 148.327 61.596 148.454C61.928 148.581 62.2 148.857 62.2 149.066C62.2 149.276 62.02 149.336 61.8 149.2C61.58 149.064 61.4 149.297 61.4 149.718C61.4 152.102 57.843 153.139 50.6 152.868C48.29 152.781 44.466 152.962 42.102 153.27C35.994 154.067 35.607 153.734 36.622 148.555C36.855 147.37 37.035 143.61 37.023 140.2C36.995 131.985 37.287 129.355 38.258 129.101C38.666 128.994 39 128.555 39 128.125C39 127.559 39.249 127.363 39.9 127.416C41.474 127.543 41.861 127.422 41.547 126.9C41.328 126.535 41.423 126.543 41.898 126.928C42.805 127.663 43.874 127.017 45.385 124.822C46.758 122.826 46.927 122.246 45.9 123.051C45.263 123.55 45.251 123.536 45.757 122.89C46.063 122.5 46.396 122.263 46.496 122.363C46.597 122.463 47.662 121.744 48.865 120.765C50.067 119.785 51.189 119.07 51.359 119.175C51.529 119.28 52.462 118.537 53.434 117.525C54.405 116.513 54.96 115.82 54.666 115.987C54.274 116.209 54.169 116.038 54.269 115.344C54.345 114.825 54.167 114.213 53.874 113.984C53.124 113.398 53.66 111.587 54.732 111.094C55.792 110.606 78.938 110.576 79.239 111.062ZM56.396 116.207C56.258 116.43 56.01 116.53 55.845 116.428C55.681 116.326 53.041 118.753 49.978 121.822C46.916 124.89 44.581 127.4 44.789 127.4C44.997 127.4 44.367 128.255 43.39 129.3C42.412 130.345 45.075 127.782 49.306 123.604C53.538 119.426 57 115.961 57 115.904C57 115.649 56.624 115.837 56.396 116.207ZM140.6 123.2C144.666 127.27 148.082 130.6 148.192 130.6C148.302 130.6 145.066 127.27 141 123.2C136.934 119.13 133.518 115.8 133.408 115.8C133.298 115.8 136.534 119.13 140.6 123.2ZM48.795 119.408C48.685 119.586 48.821 119.834 49.098 119.959C49.374 120.084 49.242 120.142 48.805 120.088C48.367 120.035 47.949 119.679 47.876 119.297C47.781 118.806 47.926 118.673 48.369 118.843C48.713 118.976 48.905 119.23 48.795 119.408ZM49.778 120.9L48.4 122.4L49.9 121.022C51.296 119.738 51.584 119.4 51.278 119.4C51.212 119.4 50.537 120.075 49.778 120.9ZM1.10899 122.6C1.10899 123.59 1.18698 123.995 1.28198 123.5C1.37798 123.005 1.37798 122.195 1.28198 121.7C1.18698 121.205 1.10899 121.61 1.10899 122.6ZM49.4 123.114C49.4 123.176 48.365 124.211 47.1 125.414L44.8 127.6L46.986 125.3C49.018 123.163 49.4 122.817 49.4 123.114ZM41.033 127.964L40.066 128.5H41.133C41.772 128.5 42.2 128.279 42.2 127.95C42.2 127.294 42.244 127.293 41.033 127.964ZM65.896 139.904C61.443 144.361 57.8 148.108 57.8 148.232C57.8 148.355 60.62 145.617 64.066 142.146C67.513 138.675 70.454 135.91 70.603 136.002C70.752 136.094 71.477 135.546 72.215 134.784C72.953 134.023 73.404 133.4 73.216 133.4C73.029 133.4 73.202 133.04 73.6 132.6C73.998 132.16 74.249 131.8 74.158 131.8C74.067 131.8 70.349 135.447 65.896 139.904ZM148.768 140.4C148.768 144.8 148.826 146.655 148.898 144.521C148.97 142.388 148.97 138.788 148.899 136.521C148.827 134.255 148.768 136 148.768 140.4ZM73 133.525C73 133.594 72.415 134.179 71.7 134.825L70.4 136L71.575 134.7C72.67 133.488 73 133.216 73 133.525ZM123 140.8C127.066 144.87 130.482 148.2 130.592 148.2C130.702 148.2 127.466 144.87 123.4 140.8C119.334 136.73 115.918 133.4 115.808 133.4C115.698 133.4 118.934 136.73 123 140.8ZM117.239 138.938C117.1 139.161 117.182 139.465 117.42 139.612C118.035 139.993 118.432 139.472 117.918 138.958C117.631 138.671 117.407 138.664 117.239 138.938ZM45.3 148.898C47.335 148.971 50.665 148.971 52.7 148.898C54.735 148.825 53.07 148.766 49 148.766C44.93 148.766 43.265 148.825 45.3 148.898ZM136.1 148.898C138.355 148.97 142.045 148.97 144.3 148.898C146.555 148.827 144.71 148.769 140.2 148.769C135.69 148.769 133.845 148.827 136.1 148.898ZM1.81799 172.455C1.78799 173.227 4.34399 176.7 5.39999 177.322C6.06399 177.713 5.96199 177.545 5.09599 176.823C4.37899 176.225 3.89498 175.57 4.01998 175.368C4.14498 175.166 4.06098 175 3.83298 175C3.60498 175 3.06298 174.325 2.62698 173.5C2.19198 172.675 1.82699 172.205 1.81799 172.455ZM184.62 176.231C183.64 176.874 183.014 177.4 183.227 177.4C183.664 177.4 186.6 175.472 186.6 175.186C186.6 174.929 186.614 174.922 184.62 176.231ZM80.8 181.97C79.04 183.591 77.474 184.841 77.32 184.748C77.166 184.654 76.842 184.948 76.6 185.4C76.358 185.852 75.989 186.117 75.78 185.988C75.571 185.858 75.4 185.922 75.4 186.128C75.4 186.334 74.854 186.729 74.187 187.005C73.52 187.282 73.058 187.591 73.16 187.694C73.624 188.158 77.521 185.451 80.8 182.388C82.78 180.538 84.31 179.024 84.2 179.024C84.09 179.023 82.56 180.349 80.8 181.97ZM108.4 183C109.928 184.54 111.269 185.8 111.379 185.8C111.489 185.8 110.328 184.54 108.8 183C107.272 181.46 105.931 180.2 105.821 180.2C105.711 180.2 106.872 181.46 108.4 183ZM176.426 184.404C176.019 185.159 175.504 185.664 175.281 185.527C175.051 185.384 174.999 185.475 175.162 185.738C175.319 185.992 175.302 186.204 175.124 186.209C174.946 186.214 174.35 186.589 173.8 187.042L172.8 187.867L174.15 187.133C175.414 186.447 177.73 183.597 177.341 183.208C177.244 183.111 176.832 183.649 176.426 184.404ZM12.2 185.548C13.594 187.062 15.7 188.433 16.067 188.066C16.173 187.96 15.861 187.746 15.372 187.591C14.883 187.436 13.655 186.571 12.642 185.669L10.8 184.028L12.2 185.548Z" fill="#FBFBFB"/>
</svg>
