<svg width="24" height="24" viewBox="0 0 24 24" fill="none" xmlns="http://www.w3.org/2000/svg">
<path d="M12 13.5C11.9007 13.4994 11.8027 13.4766 11.7133 13.4333L1.71332 8.70668C1.59879 8.65284 1.50195 8.56752 1.43412 8.46068C1.36628 8.35384 1.33026 8.2299 1.33026 8.10335C1.33026 7.97679 1.36628 7.85286 1.43412 7.74602C1.50195 7.63918 1.59879 7.55385 1.71332 7.50002L11.7133 2.77335C11.802 2.73172 11.8987 2.71014 11.9967 2.71014C12.0946 2.71014 12.1913 2.73172 12.28 2.77335L22.28 7.50002C22.3945 7.55385 22.4914 7.63918 22.5592 7.74602C22.627 7.85286 22.663 7.97679 22.663 8.10335C22.663 8.2299 22.627 8.35384 22.5592 8.46068C22.4914 8.56752 22.3945 8.65284 22.28 8.70668L12.28 13.4333C12.1926 13.4757 12.0971 13.4984 12 13.5Z" fill="#ACACAC"/>
<path d="M12 17.44C11.9007 17.4394 11.8027 17.4166 11.7133 17.3733L1.71335 12.6667C1.63246 12.6305 1.5596 12.5786 1.499 12.514C1.43841 12.4493 1.39131 12.3732 1.36046 12.2902C1.3296 12.2071 1.31561 12.1188 1.3193 12.0303C1.32299 11.9417 1.34429 11.8548 1.38195 11.7746C1.41961 11.6944 1.47288 11.6226 1.53864 11.5632C1.6044 11.5038 1.68134 11.4582 1.76495 11.4289C1.84857 11.3996 1.93718 11.3872 2.02562 11.3926C2.11406 11.3979 2.20054 11.4208 2.28001 11.46L12 16.04L21.7133 11.4467C21.7935 11.409 21.8802 11.3875 21.9686 11.3834C22.057 11.3793 22.1454 11.3926 22.2286 11.4226C22.3119 11.4526 22.3884 11.4988 22.4539 11.5584C22.5193 11.618 22.5724 11.6899 22.61 11.77C22.6477 11.8501 22.6692 11.9368 22.6733 12.0253C22.6774 12.1137 22.6641 12.202 22.6341 12.2853C22.604 12.3686 22.5579 12.4451 22.4983 12.5105C22.4387 12.576 22.3668 12.629 22.2867 12.6667L12.2867 17.3933C12.1957 17.4298 12.0978 17.4457 12 17.44Z" fill="#ACACAC"/>
<path d="M12 21.38C11.9007 21.3794 11.8027 21.3566 11.7133 21.3133L1.71332 16.5867C1.55665 16.5095 1.43653 16.3739 1.37878 16.2091C1.32103 16.0442 1.33027 15.8633 1.40451 15.7052C1.47875 15.5472 1.61206 15.4245 1.77578 15.3637C1.93949 15.3029 2.12054 15.3087 2.27999 15.38L12 20L21.7133 15.4067C21.7928 15.3675 21.8793 15.3446 21.9677 15.3392C22.0562 15.3339 22.1448 15.3462 22.2284 15.3755C22.312 15.4048 22.3889 15.4505 22.4547 15.5099C22.5205 15.5692 22.5737 15.6411 22.6114 15.7213C22.649 15.8015 22.6703 15.8884 22.674 15.9769C22.6777 16.0654 22.6637 16.1538 22.6329 16.2369C22.602 16.3199 22.5549 16.396 22.4943 16.4606C22.4337 16.5253 22.3609 16.5772 22.28 16.6133L12.2867 21.3333C12.1957 21.3698 12.0978 21.3857 12 21.38Z" fill="#ACACAC"/>
</svg>
