<svg width="24" height="24" viewBox="0 0 24 24" fill="none" xmlns="http://www.w3.org/2000/svg">
<path d="M4 21C3.45 21 2.97933 20.8043 2.588 20.413C2.19667 20.0217 2.00067 19.5507 2 19V8C2 7.71667 2.096 7.47933 2.288 7.288C2.48 7.09667 2.71733 7.00067 3 7C3.28267 6.99933 3.52033 7.09533 3.713 7.288C3.90567 7.48067 4.00133 7.718 4 8V19H18C18.2833 19 18.521 19.096 18.713 19.288C18.905 19.48 19.0007 19.7173 19 20C18.9993 20.2827 18.9033 20.5203 18.712 20.713C18.5207 20.9057 18.2833 21.0013 18 21H4ZM8 17C7.45 17 6.97933 16.8043 6.588 16.413C6.19667 16.0217 6.00067 15.5507 6 15V4C6 3.71667 6.096 3.47933 6.288 3.288C6.48 3.09667 6.71733 3.00067 7 3H22C22.2833 3 22.521 3.096 22.713 3.288C22.905 3.48 23.0007 3.71733 23 4V15C23 15.55 22.8043 16.021 22.413 16.413C22.0217 16.805 21.5507 17.0007 21 17H8ZM11 12H13C13.2833 12 13.521 11.904 13.713 11.712C13.905 11.52 14.0007 11.2827 14 11V8C14 7.71667 13.904 7.47933 13.712 7.288C13.52 7.09667 13.2827 7.00067 13 7H11C10.7167 7 10.4793 7.096 10.288 7.288C10.0967 7.48 10.0007 7.71733 10 8V11C10 11.2833 10.096 11.521 10.288 11.713C10.48 11.905 10.7173 12.0007 11 12ZM16 12H18C18.2833 12 18.521 11.904 18.713 11.712C18.905 11.52 19.0007 11.2827 19 11C18.9993 10.7173 18.9033 10.48 18.712 10.288C18.5207 10.096 18.2833 10 18 10H16C15.7167 10 15.4793 10.096 15.288 10.288C15.0967 10.48 15.0007 10.7173 15 11C14.9993 11.2827 15.0953 11.5203 15.288 11.713C15.4807 11.9057 15.718 12.0013 16 12ZM16 9H18C18.2833 9 18.521 8.904 18.713 8.712C18.905 8.52 19.0007 8.28267 19 8C18.9993 7.71733 18.9033 7.48 18.712 7.288C18.5207 7.096 18.2833 7 18 7H16C15.7167 7 15.4793 7.096 15.288 7.288C15.0967 7.48 15.0007 7.71733 15 8C14.9993 8.28267 15.0953 8.52033 15.288 8.713C15.4807 8.90567 15.718 9.00133 16 9Z" fill="#ACACAC"/>
</svg>
