<svg width="32" height="32" viewBox="0 0 32 32" fill="none" xmlns="http://www.w3.org/2000/svg">
<path d="M1.87329 7.59365L3.05326 6.41369L1.87262 5.23238C1.0455 4.40526 1.00324 3.06631 1.77669 2.18418C1.79346 2.1607 1.82901 2.11911 1.86859 2.07886C2.72523 1.22156 4.18962 1.22693 5.03351 2.07149L6.21415 3.25145L7.39479 2.07082C8.19842 1.26651 9.58635 1.22424 10.443 1.97355C10.4705 1.99367 10.5141 2.03124 10.555 2.07149C10.977 2.49343 11.2097 3.05423 11.2104 3.65059C11.2104 4.24762 10.9783 4.80909 10.5557 5.23104L9.37504 6.41167L10.5543 7.59164C10.9769 8.01359 11.2097 8.57506 11.2097 9.17142C11.2097 9.76844 10.9776 10.3299 10.555 10.7525C9.71112 11.5978 8.23934 11.5984 7.39411 10.7525L6.21482 9.57324L5.03552 10.7525C4.61224 11.1751 4.05143 11.4079 3.45508 11.4079C2.85805 11.4079 2.29657 11.1751 1.87463 10.7525C1.00257 9.88315 1.00257 8.46572 1.87329 7.59365ZM20.7347 7.58359L21.9146 6.40362L20.734 5.22231C19.9075 4.3952 19.8639 3.05625 20.6381 2.17412C20.6542 2.15064 20.6904 2.10905 20.73 2.0688C21.5866 1.2115 23.0503 1.21686 23.8949 2.06142L25.0755 3.24139L26.2568 2.06075C27.0598 1.25644 28.4484 1.21418 29.3043 1.96348C29.3319 1.98361 29.3755 2.02117 29.417 2.06142C29.839 2.48337 30.0718 3.04417 30.0724 3.64053C30.0724 4.23756 29.8403 4.79903 29.417 5.22097L28.2364 6.40161L29.4157 7.58158C29.839 8.00352 30.0718 8.565 30.0718 9.16135C30.0718 9.75838 29.839 10.3199 29.417 10.7425C28.5732 11.5877 27.1007 11.5884 26.2555 10.7425L25.0762 9.56317L23.8969 10.7425C23.4736 11.1651 22.9128 11.3985 22.3171 11.3985C21.7194 11.3985 21.1579 11.1658 20.7367 10.7425C19.8626 9.87376 19.8626 8.45565 20.7347 7.58359ZM0.000366211 29.9017V27.148C0.000366211 26.7777 0.300892 26.4772 0.671184 26.4772C1.52178 26.4772 3.22633 25.8224 3.96087 24.7974C4.08699 24.6217 4.29024 24.5177 4.50625 24.5177C4.72292 24.5177 4.92618 24.6224 5.05229 24.7988C5.80294 25.8499 7.03053 26.4778 8.33594 26.4778C9.64336 26.4778 10.871 25.8499 11.6203 24.7994C11.7464 24.623 11.949 24.5184 12.1656 24.5184C12.3816 24.5184 12.5856 24.6224 12.7117 24.7981C13.4657 25.8499 14.6953 26.4778 16 26.4778C17.3068 26.4778 18.535 25.8499 19.287 24.7988C19.5386 24.4466 20.1262 24.4466 20.3785 24.7988C21.1304 25.8499 22.3587 26.4778 23.6634 26.4778C24.9709 26.4778 26.1985 25.8499 26.9505 24.7988C27.0766 24.623 27.2792 24.5184 27.4958 24.5184C27.7112 24.5184 27.9151 24.6224 28.0412 24.7981C28.7751 25.8238 30.4783 26.4778 31.3275 26.4778C31.6978 26.4778 31.9984 26.7784 31.9984 27.1487V29.9017C31.9984 30.272 31.6978 30.5725 31.3275 30.5725C30.21 30.5725 28.5792 29.946 27.5119 28.9619C26.5111 29.9822 25.1231 30.5725 23.6628 30.5725C22.2111 30.5725 20.8299 29.9882 19.8304 28.9793C18.8316 29.9882 17.451 30.5725 15.9987 30.5725C14.5477 30.5725 13.1665 29.9882 12.1656 28.9793C11.1675 29.9882 9.78692 30.5725 8.33393 30.5725C6.87423 30.5725 5.48698 29.9815 4.48679 28.9619C3.41885 29.9466 1.78742 30.5725 0.669171 30.5725C0.300892 30.5725 0.000366211 30.272 0.000366211 29.9017Z" fill="#ACACAC"/>
</svg>
