<svg width="24" height="24" viewBox="0 0 24 24" fill="none" xmlns="http://www.w3.org/2000/svg">
<path d="M9.99999 20.777C9.12986 20.5787 8.29404 20.2522 7.51999 19.808M14 3.22299C15.9881 3.67706 17.7632 4.79268 19.0346 6.3872C20.306 7.98171 20.9984 9.96064 20.9984 12C20.9984 14.0393 20.306 16.0183 19.0346 17.6128C17.7632 19.2073 15.9881 20.3229 14 20.777M4.57899 17.093C4.03408 16.3001 3.61983 15.425 3.35199 14.501M3.12399 10.5C3.28399 9.54999 3.59199 8.64999 4.02399 7.82499L4.19299 7.51999M6.90699 4.57899C7.84319 3.93587 8.89266 3.47577 9.99999 3.22299" stroke="#ACACAC" stroke-width="2" stroke-linecap="round" stroke-linejoin="round"/>
</svg>
