<svg width="24" height="24" viewBox="0 0 24 24" fill="none" xmlns="http://www.w3.org/2000/svg">
<path d="M16.5 22H7.5C7.1023 21.9996 6.721 21.8414 6.43978 21.5602C6.15856 21.279 6.0004 20.8977 6 20.5V11.5C6.0004 11.1023 6.15856 10.721 6.43978 10.4398C6.721 10.1586 7.1023 10.0004 7.5 10H16.5C16.8977 10.0004 17.279 10.1586 17.5602 10.4398C17.8414 10.721 17.9996 11.1023 18 11.5V20.5C17.9996 20.8977 17.8414 21.279 17.5602 21.5602C17.279 21.8414 16.8977 21.9996 16.5 22ZM7.5 11.5V20.5H16.5007L16.5 11.5H7.5Z" fill="#ACACAC"/>
<path d="M11.25 1.5L10.1925 2.5575L12.1275 4.5H8.25C6.8581 4.50159 5.52367 5.05522 4.53944 6.03944C3.55522 7.02367 3.00159 8.3581 3 9.75V13.5H4.5V9.75C4.50119 8.7558 4.89666 7.80267 5.59966 7.09966C6.30267 6.39666 7.2558 6.00119 8.25 6H12.1275L10.1925 7.9425L11.25 9L15 5.25L11.25 1.5Z" fill="#ACACAC"/>
</svg>
