<svg width="24" height="24" viewBox="0 0 24 24" fill="none" xmlns="http://www.w3.org/2000/svg">
<path d="M12.3324 2.34375C11.7689 2.34352 11.2065 2.39262 10.6516 2.49047C6.65748 3.19481 3.52295 6.32934 2.8186 10.3234C2.11445 14.3175 3.9879 18.3352 7.50024 20.363C9.0369 21.2502 10.7465 21.6753 12.4438 21.6545C14.6261 21.6278 16.788 20.864 18.5356 19.3975L17.0892 17.674C15.9254 18.6519 14.4885 19.2477 12.9741 19.3802C11.4597 19.5127 9.9412 19.1755 8.6252 18.4145C7.30813 17.6553 6.25687 16.5088 5.6144 15.1311C4.97192 13.7533 4.76942 12.2111 5.03443 10.7141C5.29738 9.21681 6.01516 7.83684 7.09013 6.76188C8.1651 5.68693 9.54508 4.96918 11.0424 4.70625C12.215 4.49869 13.4203 4.57722 14.556 4.93516C15.6918 5.29311 16.7243 5.9199 17.566 6.76228L15.3281 9H21.3281V3L19.1559 5.17228C17.3551 3.37322 14.8983 2.34516 12.3324 2.34375Z" fill="#ACACAC"/>
</svg>
