<svg width="24" height="24" viewBox="0 0 24 24" fill="none" xmlns="http://www.w3.org/2000/svg">
<g clip-path="url(#clip0_7_74)">
<path d="M5.7 4.575H24V6.465H5.7V4.575ZM5.7 11.01H24V12.9H5.7V11.01ZM5.7 17.55H24V19.44H5.7V17.55ZM1.875 3.75C2.35786 3.73787 2.82594 3.91713 3.17717 4.24869C3.52841 4.58026 3.73432 5.03724 3.75 5.52C3.73046 6.00011 3.52287 6.45328 3.17206 6.78164C2.82124 7.11 2.35536 7.28721 1.875 7.275C1.39464 7.28721 0.928755 7.11 0.577941 6.78164C0.227127 6.45328 0.0195371 6.00011 -7.6741e-07 5.52C0.0156834 5.03724 0.22159 4.58026 0.572826 4.24869C0.924061 3.91713 1.39214 3.73787 1.875 3.75ZM1.875 10.2C2.12012 10.1774 2.36727 10.2061 2.60065 10.2844C2.83403 10.3627 3.04852 10.4888 3.23041 10.6546C3.4123 10.8205 3.5576 11.0225 3.65701 11.2477C3.75642 11.4729 3.80777 11.7163 3.80777 11.9625C3.80777 12.2087 3.75642 12.4521 3.65701 12.6773C3.5576 12.9025 3.4123 13.1045 3.23041 13.2704C3.04852 13.4362 2.83403 13.5623 2.60065 13.6406C2.36727 13.7189 2.12012 13.7476 1.875 13.725C1.62988 13.7476 1.38273 13.7189 1.14935 13.6406C0.915966 13.5623 0.701477 13.4362 0.519586 13.2704C0.337696 13.1045 0.192403 12.9025 0.0929897 12.6773C-0.00642312 12.4521 -0.0577698 12.2087 -0.0577698 11.9625C-0.0577698 11.7163 -0.00642312 11.4729 0.0929897 11.2477C0.192403 11.0225 0.337696 10.8205 0.519586 10.6546C0.701477 10.4888 0.915966 10.3627 1.14935 10.2844C1.38273 10.2061 1.62988 10.1774 1.875 10.2ZM1.875 16.725C2.12012 16.7024 2.36727 16.7311 2.60065 16.8094C2.83403 16.8877 3.04852 17.0138 3.23041 17.1796C3.4123 17.3455 3.5576 17.5475 3.65701 17.7727C3.75642 17.9979 3.80777 18.2413 3.80777 18.4875C3.80777 18.7337 3.75642 18.9771 3.65701 19.2023C3.5576 19.4275 3.4123 19.6295 3.23041 19.7954C3.04852 19.9612 2.83403 20.0873 2.60065 20.1656C2.36727 20.2439 2.12012 20.2726 1.875 20.25C1.62988 20.2726 1.38273 20.2439 1.14935 20.1656C0.915966 20.0873 0.701477 19.9612 0.519586 19.7954C0.337696 19.6295 0.192403 19.4275 0.0929897 19.2023C-0.00642312 18.9771 -0.0577698 18.7337 -0.0577698 18.4875C-0.0577698 18.2413 -0.00642312 17.9979 0.0929897 17.7727C0.192403 17.5475 0.337696 17.3455 0.519586 17.1796C0.701477 17.0138 0.915966 16.8877 1.14935 16.8094C1.38273 16.7311 1.62988 16.7024 1.875 16.725Z" fill="#ACACAC"/>
</g>
<defs>
<clipPath id="clip0_7_74">
<rect width="24" height="24" fill="white"/>
</clipPath>
</defs>
</svg>
