<svg width="24" height="24" viewBox="0 0 24 24" fill="none" xmlns="http://www.w3.org/2000/svg">
<g clip-path="url(#clip0_152_113)">
<path d="M4.61538 0C3.08677 0 2.42308 1.31262 1.84615 2.76923L0.0572308 7.61538C0.319385 7.47138 0.603692 7.38462 0.923077 7.38462H23.0769C23.3963 7.38462 23.6806 7.47138 23.9428 7.61538L22.1538 2.76923C21.5049 1.356 20.9132 0 19.3846 0H4.61538ZM0.923077 8.30769C0.414462 8.30769 0 8.72215 0 9.23077V12C0 12.5086 0.414462 12.9231 0.923077 12.9231H23.0769C23.5855 12.9231 24 12.5086 24 12V9.23077C24 8.72215 23.5855 8.30769 23.0769 8.30769H0.923077ZM20.7692 9.23077C20.9511 9.23083 21.1312 9.26672 21.2992 9.33638C21.4673 9.40604 21.6199 9.50812 21.7485 9.63678C21.8771 9.76543 21.979 9.91816 22.0486 10.0862C22.1181 10.2543 22.1539 10.4344 22.1538 10.6163C22.1538 10.7982 22.1179 10.9783 22.0482 11.1463C21.9786 11.3143 21.8765 11.467 21.7478 11.5956C21.6192 11.7241 21.4665 11.8261 21.2984 11.8957C21.1303 11.9652 20.9502 12.001 20.7683 12.0009C20.401 12.0008 20.0487 11.8548 19.789 11.5949C19.5294 11.3351 19.3836 10.9827 19.3837 10.6154C19.3838 10.248 19.5299 9.89579 19.7897 9.63612C20.0495 9.37646 20.4019 9.23065 20.7692 9.23077ZM0.923077 13.8462C0.414462 13.8462 0 14.2606 0 14.7692V17.5385C0 18.0471 0.414462 18.4615 0.923077 18.4615H23.0769C23.5855 18.4615 24 18.0471 24 17.5385V14.7692C24 14.2606 23.5855 13.8462 23.0769 13.8462H0.923077ZM20.7692 14.7692C20.9511 14.7693 21.1312 14.8052 21.2992 14.8748C21.4673 14.9445 21.6199 15.0466 21.7485 15.1752C21.8771 15.3039 21.979 15.4566 22.0486 15.6247C22.1181 15.7928 22.1539 15.9729 22.1538 16.1548C22.1538 16.3367 22.1179 16.5168 22.0482 16.6848C21.9786 16.8528 21.8765 17.0055 21.7478 17.134C21.6192 17.2626 21.4665 17.3646 21.2984 17.4341C21.1303 17.5037 20.9502 17.5394 20.7683 17.5394C20.401 17.5393 20.0487 17.3932 19.789 17.1334C19.5294 16.8735 19.3836 16.5212 19.3837 16.1538C19.3838 15.7865 19.5299 15.4342 19.7897 15.1746C20.0495 14.9149 20.4019 14.7691 20.7692 14.7692ZM0.923077 19.3846C0.414462 19.3846 0 19.7991 0 20.3077V23.0769C0 23.5855 0.414462 24 0.923077 24H23.0769C23.5855 24 24 23.5855 24 23.0769V20.3077C24 19.7991 23.5855 19.3846 23.0769 19.3846H0.923077ZM20.7692 20.3077C20.9511 20.3078 21.1312 20.3436 21.2992 20.4133C21.4673 20.483 21.6199 20.585 21.7485 20.7137C21.8771 20.8424 21.979 20.9951 22.0486 21.1632C22.1181 21.3312 22.1539 21.5113 22.1538 21.6932C22.1538 21.8751 22.1179 22.0552 22.0482 22.2232C21.9786 22.3913 21.8765 22.5439 21.7478 22.6725C21.6192 22.8011 21.4665 22.903 21.2984 22.9726C21.1303 23.0421 20.9502 23.0779 20.7683 23.0778C20.401 23.0777 20.0487 22.9317 19.789 22.6718C19.5294 22.412 19.3836 22.0597 19.3837 21.6923C19.3838 21.325 19.5299 20.9727 19.7897 20.713C20.0495 20.4534 20.4019 20.3076 20.7692 20.3077Z" fill="#ACACAC"/>
</g>
<defs>
<clipPath id="clip0_152_113">
<rect width="24" height="24" fill="white"/>
</clipPath>
</defs>
</svg>
