<svg width="24" height="24" viewBox="0 0 24 24" fill="none" xmlns="http://www.w3.org/2000/svg">
<path d="M5.39999 4.19999C5.08173 4.19999 4.77651 4.32642 4.55147 4.55147C4.32642 4.77651 4.19999 5.08173 4.19999 5.39999V8.09999C4.19999 8.33869 4.10517 8.56761 3.93639 8.73639C3.76761 8.90517 3.53869 8.99999 3.29999 8.99999C3.0613 8.99999 2.83238 8.90517 2.6636 8.73639C2.49481 8.56761 2.39999 8.33869 2.39999 8.09999V5.39999C2.39999 4.60434 2.71606 3.84128 3.27867 3.27867C3.84128 2.71606 4.60434 2.39999 5.39999 2.39999H8.09999C8.33869 2.39999 8.56761 2.49481 8.73639 2.6636C8.90517 2.83238 8.99999 3.0613 8.99999 3.29999C8.99999 3.53869 8.90517 3.76761 8.73639 3.93639C8.56761 4.10517 8.33869 4.19999 8.09999 4.19999H5.39999ZM5.39999 19.8C5.08173 19.8 4.77651 19.6736 4.55147 19.4485C4.32642 19.2235 4.19999 18.9183 4.19999 18.6V15.9C4.19999 15.6613 4.10517 15.4324 3.93639 15.2636C3.76761 15.0948 3.53869 15 3.29999 15C3.0613 15 2.83238 15.0948 2.6636 15.2636C2.49481 15.4324 2.39999 15.6613 2.39999 15.9V18.6C2.39999 19.3956 2.71606 20.1587 3.27867 20.7213C3.84128 21.2839 4.60434 21.6 5.39999 21.6H8.09999C8.33869 21.6 8.56761 21.5052 8.73639 21.3364C8.90517 21.1676 8.99999 20.9387 8.99999 20.7C8.99999 20.4613 8.90517 20.2324 8.73639 20.0636C8.56761 19.8948 8.33869 19.8 8.09999 19.8H5.39999ZM19.8 5.39999C19.8 5.08173 19.6736 4.77651 19.4485 4.55147C19.2235 4.32642 18.9183 4.19999 18.6 4.19999H15.9C15.6613 4.19999 15.4324 4.10517 15.2636 3.93639C15.0948 3.76761 15 3.53869 15 3.29999C15 3.0613 15.0948 2.83238 15.2636 2.6636C15.4324 2.49481 15.6613 2.39999 15.9 2.39999H18.6C19.3956 2.39999 20.1587 2.71606 20.7213 3.27867C21.2839 3.84128 21.6 4.60434 21.6 5.39999V8.09999C21.6 8.33869 21.5052 8.56761 21.3364 8.73639C21.1676 8.90517 20.9387 8.99999 20.7 8.99999C20.4613 8.99999 20.2324 8.90517 20.0636 8.73639C19.8948 8.56761 19.8 8.33869 19.8 8.09999V5.39999ZM18.6 19.8C18.9183 19.8 19.2235 19.6736 19.4485 19.4485C19.6736 19.2235 19.8 18.9183 19.8 18.6V15.9C19.8 15.6613 19.8948 15.4324 20.0636 15.2636C20.2324 15.0948 20.4613 15 20.7 15C20.9387 15 21.1676 15.0948 21.3364 15.2636C21.5052 15.4324 21.6 15.6613 21.6 15.9V18.6C21.6 19.3956 21.2839 20.1587 20.7213 20.7213C20.1587 21.2839 19.3956 21.6 18.6 21.6H15.9C15.6613 21.6 15.4324 21.5052 15.2636 21.3364C15.0948 21.1676 15 20.9387 15 20.7C15 20.4613 15.0948 20.2324 15.2636 20.0636C15.4324 19.8948 15.6613 19.8 15.9 19.8H18.6ZM6.89999 8.09999C6.89999 7.8613 6.99482 7.63238 7.1636 7.4636C7.33238 7.29482 7.5613 7.19999 7.79999 7.19999H16.2C16.4387 7.19999 16.6676 7.29482 16.8364 7.4636C17.0052 7.63238 17.1 7.8613 17.1 8.09999V9.29999C17.1 9.53869 17.0052 9.76761 16.8364 9.93639C16.6676 10.1052 16.4387 10.2 16.2 10.2C15.9613 10.2 15.7324 10.1052 15.5636 9.93639C15.3948 9.76761 15.3 9.53869 15.3 9.29999V8.99999H12.9V15H13.2C13.4387 15 13.6676 15.0948 13.8364 15.2636C14.0052 15.4324 14.1 15.6613 14.1 15.9C14.1 16.1387 14.0052 16.3676 13.8364 16.5364C13.6676 16.7052 13.4387 16.8 13.2 16.8H10.8C10.5613 16.8 10.3324 16.7052 10.1636 16.5364C9.99482 16.3676 9.89999 16.1387 9.89999 15.9C9.89999 15.6613 9.99482 15.4324 10.1636 15.2636C10.3324 15.0948 10.5613 15 10.8 15H11.1V8.99999H8.69999V9.29999C8.69999 9.53869 8.60517 9.76761 8.43639 9.93639C8.26761 10.1052 8.03869 10.2 7.79999 10.2C7.5613 10.2 7.33238 10.1052 7.1636 9.93639C6.99482 9.76761 6.89999 9.53869 6.89999 9.29999V8.09999Z" fill="#ACACAC"/>
</svg>
