<svg width="24" height="24" viewBox="0 0 24 24" fill="none" xmlns="http://www.w3.org/2000/svg">
<g clip-path="url(#clip0_115_156)">
<path d="M0 16V8H2.01562V16H0ZM3 18.6875V5.3125H5.01562V18.6875H3ZM21.9844 8H24V16H21.9844V8ZM18.9844 18.6875V5.3125H21V18.6875H18.9844ZM16.5 0C16.9062 0 17.2578 0.197917 17.5547 0.59375C17.8516 0.989583 18 1.45833 18 2V22C18 22.5417 17.8516 23.0104 17.5547 23.4062C17.2578 23.8021 16.9062 24 16.5 24H7.5C7.09375 24 6.74219 23.8021 6.44531 23.4062C6.14844 23.0104 6 22.5417 6 22V2C6 1.45833 6.14844 0.989583 6.44531 0.59375C6.74219 0.197917 7.09375 0 7.5 0H16.5ZM15.9844 21.3125V2.6875H8.01562V21.3125H15.9844Z" fill="#ACACAC"/>
</g>
<defs>
<clipPath id="clip0_115_156">
<rect width="24" height="24" fill="white"/>
</clipPath>
</defs>
</svg>
