<svg width="24" height="24" viewBox="0 0 24 24" fill="none" xmlns="http://www.w3.org/2000/svg">
<path d="M19.006 12.5062C19.0059 12.7713 18.9005 13.0257 18.713 13.2132L15.713 16.2132C15.5243 16.3953 15.2717 16.4961 15.0096 16.4938C14.7474 16.4915 14.4965 16.3864 14.3111 16.201C14.1257 16.0156 14.0206 15.7648 14.0183 15.5026C14.016 15.2404 14.1168 14.9878 14.299 14.7992L16.592 12.5062L14.299 10.2132C14.1168 10.0246 14.016 9.77195 14.0183 9.50975C14.0206 9.24756 14.1257 8.99674 14.3111 8.81134C14.4965 8.62593 14.7474 8.52076 15.0096 8.51848C15.2717 8.5162 15.5243 8.617 15.713 8.79915L18.713 11.7992C18.9005 11.9866 19.0059 12.241 19.006 12.5062ZM10.006 9.50615C10.0059 9.77135 9.9005 10.0257 9.71295 10.2132L7.41995 12.5062L9.71295 14.7992C9.89511 14.9878 9.9959 15.2404 9.99362 15.5026C9.99135 15.7648 9.88618 16.0156 9.70077 16.201C9.51536 16.3864 9.26455 16.4915 9.00235 16.4938C8.74015 16.4961 8.48755 16.3953 8.29895 16.2132L5.29895 13.2132C5.11148 13.0256 5.00616 12.7713 5.00616 12.5062C5.00616 12.241 5.11148 11.9867 5.29895 11.7992L8.29895 8.79915C8.4388 8.65935 8.61697 8.56414 8.81092 8.52557C9.00487 8.487 9.20591 8.50681 9.38861 8.58248C9.5713 8.65815 9.72747 8.78629 9.83735 8.9507C9.94724 9.11511 10.0059 9.3084 10.006 9.50615Z" fill="#ACACAC"/>
</svg>
