<svg width="24" height="24" viewBox="0 0 24 24" fill="none" xmlns="http://www.w3.org/2000/svg">
<path d="M12 19.5C11.7348 19.4999 11.4805 19.3946 11.293 19.207L8.29301 16.207C8.11085 16.0184 8.01006 15.7658 8.01234 15.5036C8.01461 15.2414 8.11978 14.9906 8.30519 14.8052C8.4906 14.6198 8.74141 14.5146 9.00361 14.5123C9.26581 14.51 9.51841 14.6108 9.70701 14.793L12 17.086L14.293 14.793C14.4816 14.6108 14.7342 14.51 14.9964 14.5123C15.2586 14.5146 15.5094 14.6198 15.6948 14.8052C15.8802 14.9906 15.9854 15.2414 15.9877 15.5036C15.99 15.7658 15.8892 16.0184 15.707 16.207L12.707 19.207C12.5195 19.3946 12.2652 19.4999 12 19.5ZM15 10.5C14.7348 10.4999 14.4805 10.3945 14.293 10.207L12 7.914L9.70701 10.207C9.51841 10.3892 9.26581 10.49 9.00361 10.4877C8.74141 10.4854 8.4906 10.3802 8.30519 10.1948C8.11978 10.0094 8.01461 9.7586 8.01234 9.4964C8.01006 9.2342 8.11085 8.9816 8.29301 8.793L11.293 5.793C11.4805 5.60553 11.7348 5.50021 12 5.50021C12.2652 5.50021 12.5195 5.60553 12.707 5.793L15.707 8.793C15.8468 8.93285 15.942 9.11102 15.9806 9.30497C16.0192 9.49892 15.9994 9.69995 15.9237 9.88265C15.848 10.0654 15.7199 10.2215 15.5555 10.3314C15.3911 10.4413 15.1978 10.5 15 10.5Z" fill="#ACACAC"/>
</svg>
