<svg width="24" height="24" viewBox="0 0 24 24" fill="none" xmlns="http://www.w3.org/2000/svg">
<g clip-path="url(#clip0_115_121)">
<path d="M20.2575 9L19.2 10.0575L21.135 12L19.1925 13.9425L20.2575 15L23.2575 12L20.2575 9Z" fill="#ACACAC"/>
<path d="M4.8075 10.065L3.75 9L0.75 12L3.75 15L4.815 13.9425L2.8725 12L4.8075 10.065Z" fill="#ACACAC"/>
<path d="M12 21.1275L10.0575 19.185L9 20.25L12 23.25L15 20.25L13.9425 19.1925L12 21.1275Z" fill="#ACACAC"/>
<path d="M12 2.8725L13.935 4.8075L15 3.75L12 0.75L9 3.75L10.0575 4.815L12 2.8725Z" fill="#ACACAC"/>
<path d="M16.5 12C16.5008 10.9913 16.1627 10.0116 15.5399 9.2181C14.9172 8.42461 14.0459 7.86337 13.0659 7.62445C12.0859 7.38554 11.054 7.4828 10.1359 7.90064C9.21785 8.31848 8.46677 9.03266 8.00326 9.92855C7.53974 10.8244 7.39066 11.8501 7.57995 12.8409C7.76924 13.8316 8.28592 14.7301 9.04706 15.392C9.8082 16.0539 10.7697 16.4409 11.7771 16.4909C12.7846 16.5408 13.7796 16.2509 14.6025 15.6675L17.4675 18.5325L18.5325 17.4675L15.6675 14.6025C16.208 13.8423 16.499 12.9328 16.5 12ZM12 15C11.4067 15 10.8266 14.8241 10.3333 14.4944C9.83995 14.1648 9.45543 13.6962 9.22837 13.1481C9.0013 12.5999 8.94189 11.9967 9.05765 11.4147C9.1734 10.8328 9.45913 10.2982 9.87868 9.87869C10.2982 9.45913 10.8328 9.17341 11.4147 9.05765C11.9967 8.94189 12.5999 9.0013 13.1481 9.22837C13.6962 9.45543 14.1648 9.83995 14.4944 10.3333C14.8241 10.8266 15 11.4067 15 12C15 12.7957 14.6839 13.5587 14.1213 14.1213C13.5587 14.6839 12.7957 15 12 15Z" fill="#ACACAC"/>
</g>
<defs>
<clipPath id="clip0_115_121">
<rect width="24" height="24" fill="white"/>
</clipPath>
</defs>
</svg>
